<svg xmlns="http://www.w3.org/2000/svg" width="472.3256530761719" height="504.8663024902344" viewBox="-139.16781616210938 -160.8828125 472.3256530761719 504.8663024902344"><title>Neo4j Graph Visualization</title><desc>Created using Neo4j (http://www.neo4j.com/)</desc><g class="layer relationships"><g class="relationship" transform="translate(100.35735108948316 106.60598965271114) rotate(486.73213224049357)"><path class="outline" fill="#A5ABB6" stroke="none" d="M 40 0.5 L 97.18479108837344 0.5 L 97.18479108837344 -0.5 L 40 -0.5 Z M 119.18479108837344 0.5 L 176.3695821767469 0.5 L 176.3695821767469 3.5 L 183.3695821767469 0 L 176.3695821767469 -3.5 L 176.3695821767469 -0.5 L 119.18479108837344 -0.5 Z"/><text text-anchor="middle" pointer-events="none" font-size="8px" fill="#000000" x="108.18479108837344" y="3" transform="rotate(180 108.18479108837344 0)" font-family="sans-serif">部门</text></g><g class="relationship" transform="translate(100.35735108948316 106.60598965271114) rotate(450.64973204555025)"><path class="outline" fill="#A5ABB6" stroke="none" d="M 40 0.5 L 89.19545575232807 0.5 L 89.19545575232807 -0.5 L 40 -0.5 Z M 127.19545575232807 0.5 L 176.39091150465615 0.5 L 176.39091150465615 3.5 L 183.39091150465615 0 L 176.39091150465615 -3.5 L 176.39091150465615 -0.5 L 127.19545575232807 -0.5 Z"/><text text-anchor="middle" pointer-events="none" font-size="8px" fill="#000000" x="108.19545575232807" y="3" transform="rotate(180 108.19545575232807 0)" font-family="sans-serif">专业属性</text></g><g class="relationship" transform="translate(100.35735108948316 106.60598965271114) rotate(428.94126529641403)"><path class="outline" fill="#A5ABB6" stroke="none" d="M 40 0.5 L 90.69976185091141 0.5 L 90.69976185091141 -0.5 L 40 -0.5 Z M 128.69976185091141 0.5 L 179.39952370182283 0.5 L 179.39952370182283 3.5 L 186.39952370182283 0 L 179.39952370182283 -3.5 L 179.39952370182283 -0.5 L 128.69976185091141 -0.5 Z"/><text text-anchor="middle" pointer-events="none" font-size="8px" fill="#000000" x="109.69976185091141" y="3" font-family="sans-serif">原因属性</text></g><g class="relationship" transform="translate(100.35735108948316 106.60598965271114) rotate(409.96087189195646)"><path class="outline" fill="#A5ABB6" stroke="none" d="M 40 0.5 L 85.74346806412831 0.5 L 85.74346806412831 -0.5 L 40 -0.5 Z M 123.74346806412831 0.5 L 169.48693612825662 0.5 L 169.48693612825662 3.5 L 176.48693612825662 0 L 169.48693612825662 -3.5 L 169.48693612825662 -0.5 L 123.74346806412831 -0.5 Z"/><text text-anchor="middle" pointer-events="none" font-size="8px" fill="#000000" x="104.74346806412831" y="3" font-family="sans-serif">事故级别</text></g><g class="relationship" transform="translate(100.35735108948316 106.60598965271114) rotate(390.78189629191064)"><path class="outline" fill="#A5ABB6" stroke="none" d="M 40 0.5 L 82.51015872661549 0.5 L 82.51015872661549 -0.5 L 40 -0.5 Z M 136.5101587266155 0.5 L 179.02031745323097 0.5 L 179.02031745323097 3.5 L 186.02031745323097 0 L 179.02031745323097 -3.5 L 179.02031745323097 -0.5 L 136.5101587266155 -0.5 Z"/><text text-anchor="middle" pointer-events="none" font-size="8px" fill="#000000" x="109.51015872661549" y="3" font-family="sans-serif">是否责任事故</text></g><g class="relationship" transform="translate(100.35735108948316 106.60598965271114) rotate(373.7142874247757)"><path class="outline" fill="#A5ABB6" stroke="none" d="M 40 0.5 L 88.61131890974033 0.5 L 88.61131890974033 -0.5 L 40 -0.5 Z M 118.61131890974033 0.5 L 167.22263781948067 0.5 L 167.22263781948067 3.5 L 174.22263781948067 0 L 167.22263781948067 -3.5 L 167.22263781948067 -0.5 L 118.61131890974033 -0.5 Z"/><text text-anchor="middle" pointer-events="none" font-size="8px" fill="#000000" x="103.61131890974033" y="3" font-family="sans-serif">责任人</text></g><g class="relationship" transform="translate(100.35735108948316 106.60598965271114) rotate(180.52175830077016)"><path class="outline" fill="#A5ABB6" stroke="none" d="M 40 0.5 L 84.74643642037339 0.5 L 84.74643642037339 -0.5 L 40 -0.5 Z M 130.74643642037339 0.5 L 175.49287284074677 0.5 L 175.49287284074677 3.5 L 182.49287284074677 0 L 175.49287284074677 -3.5 L 175.49287284074677 -0.5 L 130.74643642037339 -0.5 Z"/><text text-anchor="middle" pointer-events="none" font-size="8px" fill="#000000" x="107.74643642037339" y="3" transform="rotate(180 107.74643642037339 0)" font-family="sans-serif">是否受控点</text></g><g class="relationship" transform="translate(100.35735108948316 106.60598965271114) rotate(297.52750596137383)"><path class="outline" fill="#A5ABB6" stroke="none" d="M 40 0.5 L 98.61361245963897 0.5 L 98.61361245963897 -0.5 L 40 -0.5 Z M 144.61361245963897 0.5 L 203.22722491927794 0.5 L 203.22722491927794 3.5 L 210.22722491927794 0 L 203.22722491927794 -3.5 L 203.22722491927794 -0.5 L 144.61361245963897 -0.5 Z"/><text text-anchor="middle" pointer-events="none" font-size="8px" fill="#000000" x="121.61361245963897" y="3" font-family="sans-serif">作业线代码</text></g><g class="relationship" transform="translate(100.35735108948316 106.60598965271114) rotate(332.5102906118939)"><path class="outline" fill="#A5ABB6" stroke="none" d="M 40 0.5 L 95.16998712578373 0.5 L 95.16998712578373 -0.5 L 40 -0.5 Z M 133.16998712578373 0.5 L 188.33997425156747 0.5 L 188.33997425156747 3.5 L 195.33997425156747 0 L 188.33997425156747 -3.5 L 188.33997425156747 -0.5 L 133.16998712578373 -0.5 Z"/><text text-anchor="middle" pointer-events="none" font-size="8px" fill="#000000" x="114.16998712578373" y="3" font-family="sans-serif">确认状态</text></g><g class="relationship" transform="translate(100.35735108948316 106.60598965271114) rotate(266.1642393912719)"><path class="outline" fill="#A5ABB6" stroke="none" d="M 40 0.5 L 104.51211610464689 0.5 L 104.51211610464689 -0.5 L 40 -0.5 Z M 142.5121161046469 0.5 L 207.02423220929379 0.5 L 207.02423220929379 3.5 L 214.02423220929379 0 L 207.02423220929379 -3.5 L 207.02423220929379 -0.5 L 142.5121161046469 -0.5 Z"/><text text-anchor="middle" pointer-events="none" font-size="8px" fill="#000000" x="123.51211610464689" y="3" transform="rotate(180 123.51211610464689 0)" font-family="sans-serif">整改进度</text></g><g class="relationship" transform="translate(100.35735108948316 106.60598965271114) rotate(249.4850116777207)"><path class="outline" fill="#A5ABB6" stroke="none" d="M 40 0.5 L 90.4417094884316 0.5 L 90.4417094884316 -0.5 L 40 -0.5 Z M 144.4417094884316 0.5 L 194.8834189768632 0.5 L 194.8834189768632 3.5 L 201.8834189768632 0 L 194.8834189768632 -3.5 L 194.8834189768632 -0.5 L 144.4417094884316 -0.5 Z"/><text text-anchor="middle" pointer-events="none" font-size="8px" fill="#000000" x="117.4417094884316" y="3" transform="rotate(180 117.4417094884316 0)" font-family="sans-serif">停机开始时间</text></g><g class="relationship" transform="translate(100.35735108948316 106.60598965271114) rotate(311.3270917639382)"><path class="outline" fill="#A5ABB6" stroke="none" d="M 40 0.5 L 88.02570477491827 0.5 L 88.02570477491827 -0.5 L 40 -0.5 Z M 142.02570477491827 0.5 L 190.05140954983654 0.5 L 190.05140954983654 3.5 L 197.05140954983654 0 L 190.05140954983654 -3.5 L 190.05140954983654 -0.5 L 142.02570477491827 -0.5 Z"/><text text-anchor="middle" pointer-events="none" font-size="8px" fill="#000000" x="115.02570477491827" y="3" font-family="sans-serif">停机结束时间</text></g><g class="relationship" transform="translate(100.35735108948316 106.60598965271114) rotate(212.29549929962906)"><path class="outline" fill="#A5ABB6" stroke="none" d="M 40 0.5 L 91.5215620300258 0.5 L 91.5215620300258 -0.5 L 40 -0.5 Z M 137.5215620300258 0.5 L 189.0431240600516 0.5 L 189.0431240600516 3.5 L 196.0431240600516 0 L 189.0431240600516 -3.5 L 189.0431240600516 -0.5 L 137.5215620300258 -0.5 Z"/><text text-anchor="middle" pointer-events="none" font-size="8px" fill="#000000" x="114.5215620300258" y="3" transform="rotate(180 114.5215620300258 0)" font-family="sans-serif">停机总时间</text></g><g class="relationship" transform="translate(100.35735108948316 106.60598965271114) rotate(283.0969240014395)"><path class="outline" fill="#A5ABB6" stroke="none" d="M 40 0.5 L 97.59602248822036 0.5 L 97.59602248822036 -0.5 L 40 -0.5 Z M 143.59602248822034 0.5 L 201.1920449764407 0.5 L 201.1920449764407 3.5 L 208.1920449764407 0 L 201.1920449764407 -3.5 L 201.1920449764407 -0.5 L 143.59602248822034 -0.5 Z"/><text text-anchor="middle" pointer-events="none" font-size="8px" fill="#000000" x="120.59602248822036" y="3" font-family="sans-serif">故障总时间</text></g><g class="relationship" transform="translate(100.35735108948316 106.60598965271114) rotate(230.20198547199283)"><path class="outline" fill="#A5ABB6" stroke="none" d="M 40 0.5 L 67.54512032945175 0.5 L 67.54512032945175 -0.5 L 40 -0.5 Z M 145.54512032945175 0.5 L 173.0902406589035 0.5 L 173.0902406589035 3.5 L 180.0902406589035 0 L 173.0902406589035 -3.5 L 173.0902406589035 -0.5 L 145.54512032945175 -0.5 Z"/><text text-anchor="middle" pointer-events="none" font-size="8px" fill="#000000" x="106.54512032945175" y="3" transform="rotate(180 106.54512032945175 0)" font-family="sans-serif">事故报告书审核状态</text></g><g class="relationship" transform="translate(100.35735108948316 106.60598965271114) rotate(195.0098290647711)"><path class="outline" fill="#A5ABB6" stroke="none" d="M 40 0.5 L 91.67774884995507 0.5 L 91.67774884995507 -0.5 L 40 -0.5 Z M 129.67774884995507 0.5 L 181.35549769991013 0.5 L 181.35549769991013 3.5 L 188.35549769991013 0 L 181.35549769991013 -3.5 L 181.35549769991013 -0.5 L 129.67774884995507 -0.5 Z"/><text text-anchor="middle" pointer-events="none" font-size="8px" fill="#000000" x="110.67774884995507" y="3" transform="rotate(180 110.67774884995507 0)" font-family="sans-serif">直接损失</text></g><g class="relationship" transform="translate(100.35735108948316 106.60598965271114) rotate(353.3073512044282)"><path class="outline" fill="#A5ABB6" stroke="none" d="M 40 0.5 L 87.59939860220702 0.5 L 87.59939860220702 -0.5 L 40 -0.5 Z M 125.59939860220702 0.5 L 173.19879720441403 0.5 L 173.19879720441403 3.5 L 180.19879720441403 0 L 173.19879720441403 -3.5 L 173.19879720441403 -0.5 L 125.59939860220702 -0.5 Z"/><text text-anchor="middle" pointer-events="none" font-size="8px" fill="#000000" x="106.59939860220702" y="3" font-family="sans-serif">设备类别</text></g><g class="relationship" transform="translate(100.35735108948316 106.60598965271114) rotate(505.728826953705)"><path class="outline" fill="#A5ABB6" stroke="none" d="M 40 0.5 L 93.71186777724326 0.5 L 93.71186777724326 -0.5 L 40 -0.5 Z M 131.71186777724324 0.5 L 185.4237355544865 0.5 L 185.4237355544865 3.5 L 192.4237355544865 0 L 185.4237355544865 -3.5 L 185.4237355544865 -0.5 L 131.71186777724324 -0.5 Z"/><text text-anchor="middle" pointer-events="none" font-size="8px" fill="#000000" x="112.71186777724326" y="3" transform="rotate(180 112.71186777724326 0)" font-family="sans-serif">失效部位</text></g><g class="relationship" transform="translate(100.35735108948316 106.60598965271114) rotate(525.5513087902337)"><path class="outline" fill="#A5ABB6" stroke="none" d="M 40 0.5 L 93.7006240848087 0.5 L 93.7006240848087 -0.5 L 40 -0.5 Z M 131.70062408480868 0.5 L 185.4012481696174 0.5 L 185.4012481696174 3.5 L 192.4012481696174 0 L 185.4012481696174 -3.5 L 185.4012481696174 -0.5 L 131.70062408480868 -0.5 Z"/><text text-anchor="middle" pointer-events="none" font-size="8px" fill="#000000" x="112.7006240848087" y="3" transform="rotate(180 112.7006240848087 0)" font-family="sans-serif">失效形式</text></g><g class="relationship" transform="translate(100.35735108948316 106.60598965271114) rotate(468.12859821221525)"><path class="outline" fill="#A5ABB6" stroke="none" d="M 40 0.5 L 85.31041190270808 0.5 L 85.31041190270808 -0.5 L 40 -0.5 Z M 123.31041190270808 0.5 L 168.62082380541617 0.5 L 168.62082380541617 3.5 L 175.62082380541617 0 L 168.62082380541617 -3.5 L 168.62082380541617 -0.5 L 123.31041190270808 -0.5 Z"/><text text-anchor="middle" pointer-events="none" font-size="8px" fill="#000000" x="104.31041190270808" y="3" transform="rotate(180 104.31041190270808 0)" font-family="sans-serif">失效原因</text></g></g><g class="layer nodes"><g class="node" transform="translate(100.35735108948316,106.60598965271114)"><circle class="outline" cx="0" cy="0" r="40" fill="#57C7E3" stroke="#23b3d7" stroke-width="2px"/><text text-anchor="middle" pointer-events="none" font-family="sans-serif" dy="2.5" font-size="40" fill="#2A2C34"/><text text-anchor="middle" pointer-events="none" x="0" y="5" font-size="10px" fill="#2A2C34" font-family="sans-serif"> 311205E01-G2…</text></g><g class="node" transform="translate(-24.263224153963293,273.60178302040225)"><circle class="outline" cx="0" cy="0" r="25" fill="#604A0E" stroke="#423204" stroke-width="2px"/><text text-anchor="middle" pointer-events="none" font-family="sans-serif" dy="1.5625" font-size="25" fill="#FFFFFF"/><text text-anchor="middle" pointer-events="none" x="0" y="5" font-size="10px" fill="#FFFFFF" font-family="sans-serif"> 热轧厂</text></g><g class="node" transform="translate(97.9942564172857,314.98350231017537)"><circle class="outline" cx="0" cy="0" r="25" fill="#C990C0" stroke="#b261a5" stroke-width="2px"/><text text-anchor="middle" pointer-events="none" font-family="sans-serif" dy="1.5625" font-size="25" fill="#FFFFFF"/><text text-anchor="middle" pointer-events="none" x="0" y="5" font-size="10px" fill="#FFFFFF" font-family="sans-serif"> E---电气</text></g><g class="node" transform="translate(176.31844000247634,303.8866820493821)"><circle class="outline" cx="0" cy="0" r="25" fill="#F79767" stroke="#f36924" stroke-width="2px"/><text text-anchor="middle" pointer-events="none" font-family="sans-serif" dy="1.5625" font-size="25" fill="#FFFFFF"/><text text-anchor="middle" pointer-events="none" x="0" y="5" font-size="10px" fill="#FFFFFF" font-family="sans-serif"> 点检</text></g><g class="node" transform="translate(229.9760333606489,260.86545495918347)"><circle class="outline" cx="0" cy="0" r="25" fill="#F16667" stroke="#eb2728" stroke-width="2px"/><text text-anchor="middle" pointer-events="none" font-family="sans-serif" dy="1.5625" font-size="25" fill="#FFFFFF"/><text text-anchor="middle" pointer-events="none" x="0" y="5" font-size="10px" fill="#FFFFFF" font-family="sans-serif"> 故障</text></g><g class="node" transform="translate(281.6494731124849,214.6001601919557)"><circle class="outline" cx="0" cy="0" r="25" fill="#D9C8AE" stroke="#c0a378" stroke-width="2px"/><text text-anchor="middle" pointer-events="none" font-family="sans-serif" dy="1.5625" font-size="25" fill="#2A2C34"/><text text-anchor="middle" pointer-events="none" x="0" y="5" font-size="10px" fill="#2A2C34" font-family="sans-serif"> 否</text></g><g class="node" transform="translate(293.9001577234939,153.83777365439676)"><circle class="outline" cx="0" cy="0" r="25" fill="#8DCC93" stroke="#5db665" stroke-width="2px"/><text text-anchor="middle" pointer-events="none" font-family="sans-serif" dy="1.5625" font-size="25" fill="#2A2C34"/><text text-anchor="middle" pointer-events="none" x="0" y="5" font-size="10px" fill="#2A2C34" font-family="sans-serif"> 沈政</text></g><g class="node" transform="translate(-107.12691847921411,104.71650261902394)"><circle class="outline" cx="0" cy="0" r="25" fill="#ECB5C9" stroke="#da7298" stroke-width="2px"/><text text-anchor="middle" pointer-events="none" font-family="sans-serif" dy="1.5625" font-size="25" fill="#2A2C34"/><text text-anchor="middle" pointer-events="none" x="0" y="5" font-size="10px" fill="#2A2C34" font-family="sans-serif"> 否</text></g><g class="node" transform="translate(209.0733495573797,-101.99093990367733)"><circle class="outline" cx="0" cy="0" r="25" fill="#4C8EDA" stroke="#2870c2" stroke-width="2px"/><text text-anchor="middle" pointer-events="none" font-family="sans-serif" dy="1.5625" font-size="25" fill="#FFFFFF"/><text text-anchor="middle" pointer-events="none" x="0" y="5" font-size="10px" fill="#FFFFFF" font-family="sans-serif"> 2050热…</text></g><g class="node" transform="translate(295.81956540048225,4.899416463843579)"><circle class="outline" cx="0" cy="0" r="25" fill="#FFC454" stroke="#d7a013" stroke-width="2px"/><text text-anchor="middle" pointer-events="none" font-family="sans-serif" dy="1.5625" font-size="25" fill="#2A2C34"/><text text-anchor="middle" pointer-events="none" x="0" y="5" font-size="10px" fill="#2A2C34" font-family="sans-serif"> 新增</text></g><g class="node" transform="translate(84.36742934171397,-131.88280669995322)"><circle class="outline" cx="0" cy="0" r="25" fill="#DA7194" stroke="#cc3c6c" stroke-width="2px"/><text text-anchor="middle" pointer-events="none" font-family="sans-serif" dy="1.5625" font-size="25" fill="#FFFFFF"/><text text-anchor="middle" pointer-events="none" x="0" y="5" font-size="10px" fill="#FFFFFF" font-family="sans-serif"> 未落实</text></g><g class="node" transform="translate(20.84551271280054,-105.8886064305567)"><circle class="outline" cx="0" cy="0" r="25" fill="#569480" stroke="#447666" stroke-width="2px"/><text text-anchor="middle" pointer-events="none" font-family="sans-serif" dy="1.5625" font-size="25" fill="#FFFFFF"/><text text-anchor="middle" pointer-events="none" x="0" y="5" font-size="10px" fill="#FFFFFF" font-family="sans-serif"> 2020-04…</text></g><g class="node" transform="translate(246.9905142783668,-60.143954683985584)"><circle class="outline" cx="0" cy="0" r="25" fill="#A5ABB6" stroke="#9AA1AC" stroke-width="2px"/><text text-anchor="middle" pointer-events="none" font-family="sans-serif" dy="1.5625" font-size="25" fill="#FFFFFF"/><text text-anchor="middle" pointer-events="none" x="0" y="5" font-size="10px" fill="#FFFFFF" font-family="sans-serif"> 2020-04…</text></g><g class="node" transform="translate(-86.49124276551164,-11.4942460313829)"><circle class="outline" cx="0" cy="0" r="25" fill="#569480" stroke="#447666" stroke-width="2px"/><text text-anchor="middle" pointer-events="none" font-family="sans-serif" dy="1.5625" font-size="25" fill="#FFFFFF"/><text text-anchor="middle" pointer-events="none" x="0" y="5" font-size="10px" fill="#FFFFFF" font-family="sans-serif"> 0.67</text></g><g class="node" transform="translate(153.19843947295684,-120.52029508497452)"><circle class="outline" cx="0" cy="0" r="25" fill="#A5ABB6" stroke="#9AA1AC" stroke-width="2px"/><text text-anchor="middle" pointer-events="none" font-family="sans-serif" dy="1.5625" font-size="25" fill="#FFFFFF"/><text text-anchor="middle" pointer-events="none" x="0" y="5" font-size="10px" fill="#FFFFFF" font-family="sans-serif"> 0.67</text></g><g class="node" transform="translate(-30.91744095852311,-50.96601225841411)"><circle class="outline" cx="0" cy="0" r="25" fill="#A5ABB6" stroke="#9AA1AC" stroke-width="2px"/><text text-anchor="middle" pointer-events="none" font-family="sans-serif" dy="1.5625" font-size="25" fill="#FFFFFF"/><text text-anchor="middle" pointer-events="none" x="0" y="5" font-size="10px" fill="#FFFFFF" font-family="sans-serif"> 回退</text></g><g class="node" transform="translate(-105.71875824147446,51.35017039544596)"><circle class="outline" cx="0" cy="0" r="25" fill="#A5ABB6" stroke="#9AA1AC" stroke-width="2px"/><text text-anchor="middle" pointer-events="none" font-family="sans-serif" dy="1.5625" font-size="25" fill="#FFFFFF"/><text text-anchor="middle" pointer-events="none" x="0" y="5" font-size="10px" fill="#FFFFFF" font-family="sans-serif"> 0.08</text></g><g class="node" transform="translate(304.1578437723914,82.69144269187353)"><circle class="outline" cx="0" cy="0" r="25" fill="#A5ABB6" stroke="#9AA1AC" stroke-width="2px"/><text text-anchor="middle" pointer-events="none" font-family="sans-serif" dy="1.5625" font-size="25" fill="#FFFFFF"/><text text-anchor="middle" pointer-events="none" x="0" y="5" font-size="10px" fill="#FFFFFF" font-family="sans-serif"> 交流同步…</text></g><g class="node" transform="translate(-79.31764818708854,229.03954476498927)"><circle class="outline" cx="0" cy="0" r="25" fill="#A5ABB6" stroke="#9AA1AC" stroke-width="2px"/><text text-anchor="middle" pointer-events="none" font-family="sans-serif" dy="1.5625" font-size="25" fill="#FFFFFF"/><text text-anchor="middle" pointer-events="none" x="0" y="5" font-size="10px" fill="#FFFFFF" font-family="sans-serif"> GDJ00-…</text></g><g class="node" transform="translate(-110.16781502401544,160.85040999795405)"><circle class="outline" cx="0" cy="0" r="25" fill="#F79767" stroke="#f36924" stroke-width="2px"/><text text-anchor="middle" pointer-events="none" font-family="sans-serif" dy="1.5625" font-size="25" fill="#FFFFFF"/><text text-anchor="middle" pointer-events="none" x="0" y="5" font-size="10px" fill="#FFFFFF" font-family="sans-serif"> GDZ00-…</text></g><g class="node" transform="translate(37.93401632149379,297.2681049792945)"><circle class="outline" cx="0" cy="0" r="25" fill="#57C7E3" stroke="#23b3d7" stroke-width="2px"/><text text-anchor="middle" pointer-events="none" font-family="sans-serif" dy="1.5625" font-size="25" fill="#2A2C34"/><text text-anchor="middle" pointer-events="none" x="0" y="5" font-size="10px" fill="#2A2C34" font-family="sans-serif"> EFZ00-…</text></g></g></svg>