<svg xmlns="http://www.w3.org/2000/svg" width="838.5353393554688" height="625.14453125" viewBox="-310.86041259765625 -214.19384765625 838.5353393554688 625.14453125"><title>Neo4j Graph Visualization</title><desc>Created using Neo4j (http://www.neo4j.com/)</desc><g class="layer relationships"><g class="relationship" transform="translate(-116.15331275017111 -49.00007373918043) rotate(480.2891499661099)"><path class="outline" fill="#A5ABB6" stroke="none" d="M 40 0.5 L 65.36933865355059 0.5 L 65.36933865355059 -0.5 L 40 -0.5 Z M 111.36933865355059 0.5 L 136.73867730710117 0.5 L 136.73867730710117 3.5 L 143.73867730710117 0 L 136.73867730710117 -3.5 L 136.73867730710117 -0.5 L 111.36933865355059 -0.5 Z"/><text text-anchor="middle" pointer-events="none" font-size="8px" fill="#000000" x="88.36933865355059" y="3" transform="rotate(180 88.36933865355059 0)" font-family="sans-serif">作业线代码</text></g><g class="relationship" transform="translate(-116.15331275017111 -49.00007373918043) rotate(380.7273577084032)"><path class="outline" fill="#A5ABB6" stroke="none" d="M 40 0.5 L 124.90944381858199 0.5 L 124.90944381858199 -0.5 L 40 -0.5 Z M 146.909443818582 0.5 L 231.81888763716398 0.5 L 231.81888763716398 3.5 L 238.81888763716398 0 L 231.81888763716398 -3.5 L 231.81888763716398 -0.5 L 146.909443818582 -0.5 Z"/><text text-anchor="middle" pointer-events="none" font-size="8px" fill="#000000" x="135.909443818582" y="3" font-family="sans-serif">部门</text></g><g class="relationship" transform="translate(-116.15331275017111 -49.00007373918043) rotate(402.7939451180671)"><path class="outline" fill="#A5ABB6" stroke="none" d="M 40 0.5 L 112.44191205462867 0.5 L 112.44191205462867 -0.5 L 40 -0.5 Z M 150.4419120546287 0.5 L 222.88382410925735 0.5 L 222.88382410925735 3.5 L 229.88382410925735 0 L 222.88382410925735 -3.5 L 222.88382410925735 -0.5 L 150.4419120546287 -0.5 Z"/><text text-anchor="middle" pointer-events="none" font-size="8px" fill="#000000" x="131.4419120546287" y="3" font-family="sans-serif">专业属性</text></g><g class="relationship" transform="translate(-116.15331275017111 -49.00007373918043) rotate(390.81810210740065)"><path class="outline" fill="#A5ABB6" stroke="none" d="M 40 0.5 L 96.11394537877759 0.5 L 96.11394537877759 -0.5 L 40 -0.5 Z M 134.1139453787776 0.5 L 190.22789075755517 0.5 L 190.22789075755517 3.5 L 197.22789075755517 0 L 190.22789075755517 -3.5 L 190.22789075755517 -0.5 L 134.1139453787776 -0.5 Z"/><text text-anchor="middle" pointer-events="none" font-size="8px" fill="#000000" x="115.11394537877759" y="3" font-family="sans-serif">事故级别</text></g><g class="relationship" transform="translate(-116.15331275017111 -49.00007373918043) rotate(415.3973043073269)"><path class="outline" fill="#A5ABB6" stroke="none" d="M 40 0.5 L 102.34066408066126 0.5 L 102.34066408066126 -0.5 L 40 -0.5 Z M 132.34066408066127 0.5 L 194.6813281613225 0.5 L 194.6813281613225 3.5 L 201.6813281613225 0 L 194.6813281613225 -3.5 L 194.6813281613225 -0.5 L 132.34066408066127 -0.5 Z"/><text text-anchor="middle" pointer-events="none" font-size="8px" fill="#000000" x="117.34066408066126" y="3" font-family="sans-serif">责任人</text></g><g class="relationship" transform="translate(-116.15331275017111 -49.00007373918043) rotate(413.7599133556066)"><path class="outline" fill="#A5ABB6" stroke="none" d="M 40 0.5 L 127.94694703342768 0.5 L 127.94694703342768 -0.5 L 40 -0.5 Z M 165.94694703342768 0.5 L 253.89389406685535 0.5 L 253.89389406685535 3.5 L 260.89389406685535 0 L 253.89389406685535 -3.5 L 253.89389406685535 -0.5 L 165.94694703342768 -0.5 Z"/><text text-anchor="middle" pointer-events="none" font-size="8px" fill="#000000" x="146.94694703342768" y="3" font-family="sans-serif">整改进度</text></g><g class="relationship" transform="translate(-116.15331275017111 -49.00007373918043) rotate(459.5212316791279)"><path class="outline" fill="#A5ABB6" stroke="none" d="M 40 0.5 L 62.08975740575468 0.5 L 62.08975740575468 -0.5 L 40 -0.5 Z M 100.08975740575468 0.5 L 122.17951481150936 0.5 L 122.17951481150936 3.5 L 129.17951481150936 0 L 122.17951481150936 -3.5 L 122.17951481150936 -0.5 L 100.08975740575468 -0.5 Z"/><text text-anchor="middle" pointer-events="none" font-size="8px" fill="#000000" x="81.08975740575468" y="3" transform="rotate(180 81.08975740575468 0)" font-family="sans-serif">确认状态</text></g><g class="relationship" transform="translate(-116.15331275017111 -49.00007373918043) rotate(389.70512466602986)"><path class="outline" fill="#A5ABB6" stroke="none" d="M 40 0.5 L 144.78898199635262 0.5 L 144.78898199635262 -0.5 L 40 -0.5 Z M 182.78898199635262 0.5 L 287.57796399270524 0.5 L 287.57796399270524 3.5 L 294.57796399270524 0 L 287.57796399270524 -3.5 L 287.57796399270524 -0.5 L 182.78898199635262 -0.5 Z"/><text text-anchor="middle" pointer-events="none" font-size="8px" fill="#000000" x="163.78898199635262" y="3" font-family="sans-serif">设备类别</text></g><g class="relationship" transform="translate(-116.15331275017111 -49.00007373918043) rotate(400.43532356365444)"><path class="outline" fill="#A5ABB6" stroke="none" d="M 40 0.5 L 141.74633010303097 0.5 L 141.74633010303097 -0.5 L 40 -0.5 Z M 179.74633010303097 0.5 L 281.49266020606194 0.5 L 281.49266020606194 3.5 L 288.49266020606194 0 L 281.49266020606194 -3.5 L 281.49266020606194 -0.5 L 179.74633010303097 -0.5 Z"/><text text-anchor="middle" pointer-events="none" font-size="8px" fill="#000000" x="160.74633010303097" y="3" font-family="sans-serif">失效形式</text></g><g class="relationship" transform="translate(-116.15331275017111 -49.00007373918043) rotate(186.37085946768912)"><path class="outline" fill="#A5ABB6" stroke="none" d="M 40 0.5 L 44.353731132512934 0.5 L 44.353731132512934 -0.5 L 40 -0.5 Z M 98.35373113251293 0.5 L 102.70746226502587 0.5 L 102.70746226502587 3.5 L 109.70746226502587 0 L 102.70746226502587 -3.5 L 102.70746226502587 -0.5 L 98.35373113251293 -0.5 Z"/><text text-anchor="middle" pointer-events="none" font-size="8px" fill="#000000" x="71.35373113251293" y="3" transform="rotate(180 71.35373113251293 0)" font-family="sans-serif">停机开始时间</text></g><g class="relationship" transform="translate(-116.15331275017111 -49.00007373918043) rotate(270.91413095786316)"><path class="outline" fill="#A5ABB6" stroke="none" d="M 40 0.5 L 45.10555859173289 0.5 L 45.10555859173289 -0.5 L 40 -0.5 Z M 99.10555859173289 0.5 L 104.21111718346577 0.5 L 104.21111718346577 3.5 L 111.21111718346577 0 L 104.21111718346577 -3.5 L 104.21111718346577 -0.5 L 99.10555859173289 -0.5 Z"/><text text-anchor="middle" pointer-events="none" font-size="8px" fill="#000000" x="72.10555859173289" y="3" font-family="sans-serif">停机结束时间</text></g><g class="relationship" transform="translate(-116.15331275017111 -49.00007373918043) rotate(351.89541025530275)"><path class="outline" fill="#A5ABB6" stroke="none" d="M 40 0.5 L 90.0359448401242 0.5 L 90.0359448401242 -0.5 L 40 -0.5 Z M 128.03594484012422 0.5 L 178.0718896802484 0.5 L 178.0718896802484 3.5 L 185.0718896802484 0 L 178.0718896802484 -3.5 L 178.0718896802484 -0.5 L 128.03594484012422 -0.5 Z"/><text text-anchor="middle" pointer-events="none" font-size="8px" fill="#000000" x="109.0359448401242" y="3" font-family="sans-serif">失效部位</text></g><g class="relationship" transform="translate(-116.15331275017111 -49.00007373918043) rotate(228.81392181757042)"><path class="outline" fill="#A5ABB6" stroke="none" d="M 40 0.5 L 52.49532389779168 0.5 L 52.49532389779168 -0.5 L 40 -0.5 Z M 90.49532389779168 0.5 L 102.99064779558336 0.5 L 102.99064779558336 3.5 L 109.99064779558336 0 L 102.99064779558336 -3.5 L 102.99064779558336 -0.5 L 90.49532389779168 -0.5 Z"/><text text-anchor="middle" pointer-events="none" font-size="8px" fill="#000000" x="71.49532389779168" y="3" transform="rotate(180 71.49532389779168 0)" font-family="sans-serif">失效原因</text></g><g class="relationship" transform="translate(-151.6001099481402 253.7175997987375) rotate(340.0663606841574)"><path class="outline" fill="#A5ABB6" stroke="none" d="M 40 0.5 L 130.76195128041002 0.5 L 130.76195128041002 -0.5 L 40 -0.5 Z M 168.76195128041002 0.5 L 259.52390256082003 0.5 L 259.52390256082003 3.5 L 266.52390256082003 0 L 259.52390256082003 -3.5 L 259.52390256082003 -0.5 L 168.76195128041002 -0.5 Z"/><text text-anchor="middle" pointer-events="none" font-size="8px" fill="#000000" x="149.76195128041002" y="3" font-family="sans-serif">失效形式</text></g><g class="relationship" transform="translate(-151.6001099481402 253.7175997987375) rotate(335.24287068499666)"><path class="outline" fill="#A5ABB6" stroke="none" d="M 40 0.5 L 157.35502812955482 0.5 L 157.35502812955482 -0.5 L 40 -0.5 Z M 195.35502812955482 0.5 L 312.71005625910965 0.5 L 312.71005625910965 3.5 L 319.71005625910965 0 L 312.71005625910965 -3.5 L 312.71005625910965 -0.5 L 195.35502812955482 -0.5 Z"/><text text-anchor="middle" pointer-events="none" font-size="8px" fill="#000000" x="176.35502812955482" y="3" font-family="sans-serif">设备类别</text></g><g class="relationship" transform="translate(-151.6001099481402 253.7175997987375) rotate(273.7759663648494)"><path class="outline" fill="#A5ABB6" stroke="none" d="M 40 0.5 L 60.494924961826186 0.5 L 60.494924961826186 -0.5 L 40 -0.5 Z M 98.49492496182619 0.5 L 118.98984992365237 0.5 L 118.98984992365237 3.5 L 125.98984992365237 0 L 118.98984992365237 -3.5 L 118.98984992365237 -0.5 L 98.49492496182619 -0.5 Z"/><text text-anchor="middle" pointer-events="none" font-size="8px" fill="#000000" x="79.49492496182619" y="3" font-family="sans-serif">确认状态</text></g><g class="relationship" transform="translate(-151.6001099481402 253.7175997987375) rotate(340.56770599797767)"><path class="outline" fill="#A5ABB6" stroke="none" d="M 40 0.5 L 93.40459714735145 0.5 L 93.40459714735145 -0.5 L 40 -0.5 Z M 131.40459714735147 0.5 L 184.8091942947029 0.5 L 184.8091942947029 3.5 L 191.8091942947029 0 L 184.8091942947029 -3.5 L 184.8091942947029 -0.5 L 131.40459714735147 -0.5 Z"/><text text-anchor="middle" pointer-events="none" font-size="8px" fill="#000000" x="112.40459714735145" y="3" font-family="sans-serif">整改进度</text></g><g class="relationship" transform="translate(-151.6001099481402 253.7175997987375) rotate(324.7252064476839)"><path class="outline" fill="#A5ABB6" stroke="none" d="M 40 0.5 L 89.54924854385078 0.5 L 89.54924854385078 -0.5 L 40 -0.5 Z M 119.54924854385078 0.5 L 169.09849708770156 0.5 L 169.09849708770156 3.5 L 176.09849708770156 0 L 169.09849708770156 -3.5 L 169.09849708770156 -0.5 L 119.54924854385078 -0.5 Z"/><text text-anchor="middle" pointer-events="none" font-size="8px" fill="#000000" x="104.54924854385078" y="3" font-family="sans-serif">责任人</text></g><g class="relationship" transform="translate(-151.6001099481402 253.7175997987375) rotate(320.15150702144456)"><path class="outline" fill="#A5ABB6" stroke="none" d="M 40 0.5 L 132.3775271570298 0.5 L 132.3775271570298 -0.5 L 40 -0.5 Z M 170.3775271570298 0.5 L 262.7550543140596 0.5 L 262.7550543140596 3.5 L 269.7550543140596 0 L 262.7550543140596 -3.5 L 262.7550543140596 -0.5 L 170.3775271570298 -0.5 Z"/><text text-anchor="middle" pointer-events="none" font-size="8px" fill="#000000" x="151.3775271570298" y="3" font-family="sans-serif">事故级别</text></g><g class="relationship" transform="translate(-151.6001099481402 253.7175997987375) rotate(329.78618550958737)"><path class="outline" fill="#A5ABB6" stroke="none" d="M 40 0.5 L 113.72769270341371 0.5 L 113.72769270341371 -0.5 L 40 -0.5 Z M 151.7276927034137 0.5 L 225.45538540682742 0.5 L 225.45538540682742 3.5 L 232.45538540682742 0 L 225.45538540682742 -3.5 L 225.45538540682742 -0.5 L 151.7276927034137 -0.5 Z"/><text text-anchor="middle" pointer-events="none" font-size="8px" fill="#000000" x="132.7276927034137" y="3" font-family="sans-serif">专业属性</text></g><g class="relationship" transform="translate(-151.6001099481402 253.7175997987375) rotate(323.42962759870915)"><path class="outline" fill="#A5ABB6" stroke="none" d="M 40 0.5 L 168.6823711627438 0.5 L 168.6823711627438 -0.5 L 40 -0.5 Z M 190.6823711627438 0.5 L 319.3647423254876 0.5 L 319.3647423254876 3.5 L 326.3647423254876 0 L 319.3647423254876 -3.5 L 319.3647423254876 -0.5 L 190.6823711627438 -0.5 Z"/><text text-anchor="middle" pointer-events="none" font-size="8px" fill="#000000" x="179.6823711627438" y="3" font-family="sans-serif">部门</text></g><g class="relationship" transform="translate(-151.6001099481402 253.7175997987375) rotate(252.44929007465174)"><path class="outline" fill="#A5ABB6" stroke="none" d="M 40 0.5 L 63.33953513369248 0.5 L 63.33953513369248 -0.5 L 40 -0.5 Z M 109.33953513369248 0.5 L 132.67907026738496 0.5 L 132.67907026738496 3.5 L 139.67907026738496 0 L 132.67907026738496 -3.5 L 132.67907026738496 -0.5 L 109.33953513369248 -0.5 Z"/><text text-anchor="middle" pointer-events="none" font-size="8px" fill="#000000" x="86.33953513369248" y="3" transform="rotate(180 86.33953513369248 0)" font-family="sans-serif">作业线代码</text></g><g class="relationship" transform="translate(365.13529101512444 209.53187830816933) rotate(192.8155032166353)"><path class="outline" fill="#A5ABB6" stroke="none" d="M 40 0.5 L 109.43846167038218 0.5 L 109.43846167038218 -0.5 L 40 -0.5 Z M 147.4384616703822 0.5 L 216.87692334076436 0.5 L 216.87692334076436 3.5 L 223.87692334076436 0 L 216.87692334076436 -3.5 L 216.87692334076436 -0.5 L 147.4384616703822 -0.5 Z"/><text text-anchor="middle" pointer-events="none" font-size="8px" fill="#000000" x="128.4384616703822" y="3" transform="rotate(180 128.4384616703822 0)" font-family="sans-serif">失效形式</text></g><g class="relationship" transform="translate(365.13529101512444 209.53187830816933) rotate(206.1848367884392)"><path class="outline" fill="#A5ABB6" stroke="none" d="M 40 0.5 L 98.50173273688512 0.5 L 98.50173273688512 -0.5 L 40 -0.5 Z M 136.50173273688512 0.5 L 195.00346547377023 0.5 L 195.00346547377023 3.5 L 202.00346547377023 0 L 195.00346547377023 -3.5 L 195.00346547377023 -0.5 L 136.50173273688512 -0.5 Z"/><text text-anchor="middle" pointer-events="none" font-size="8px" fill="#000000" x="117.50173273688512" y="3" transform="rotate(180 117.50173273688512 0)" font-family="sans-serif">设备类别</text></g><g class="relationship" transform="translate(365.13529101512444 209.53187830816933) rotate(185.1136821143973)"><path class="outline" fill="#A5ABB6" stroke="none" d="M 40 0.5 L 141.76228357305087 0.5 L 141.76228357305087 -0.5 L 40 -0.5 Z M 179.76228357305087 0.5 L 281.52456714610173 0.5 L 281.52456714610173 3.5 L 288.52456714610173 0 L 281.52456714610173 -3.5 L 281.52456714610173 -0.5 L 179.76228357305087 -0.5 Z"/><text text-anchor="middle" pointer-events="none" font-size="8px" fill="#000000" x="160.76228357305087" y="3" transform="rotate(180 160.76228357305087 0)" font-family="sans-serif">整改进度</text></g><g class="relationship" transform="translate(365.13529101512444 209.53187830816933) rotate(191.5341980814938)"><path class="outline" fill="#A5ABB6" stroke="none" d="M 40 0.5 L 168.91338011942216 0.5 L 168.91338011942216 -0.5 L 40 -0.5 Z M 198.91338011942216 0.5 L 327.8267602388443 0.5 L 327.8267602388443 3.5 L 334.8267602388443 0 L 327.8267602388443 -3.5 L 327.8267602388443 -0.5 L 198.91338011942216 -0.5 Z"/><text text-anchor="middle" pointer-events="none" font-size="8px" fill="#000000" x="183.91338011942216" y="3" transform="rotate(180 183.91338011942216 0)" font-family="sans-serif">责任人</text></g><g class="relationship" transform="translate(365.13529101512444 209.53187830816933) rotate(206.4800164926753)"><path class="outline" fill="#A5ABB6" stroke="none" d="M 40 0.5 L 147.24052359384174 0.5 L 147.24052359384174 -0.5 L 40 -0.5 Z M 185.24052359384174 0.5 L 292.4810471876835 0.5 L 292.4810471876835 3.5 L 299.4810471876835 0 L 292.4810471876835 -3.5 L 292.4810471876835 -0.5 L 185.24052359384174 -0.5 Z"/><text text-anchor="middle" pointer-events="none" font-size="8px" fill="#000000" x="166.24052359384174" y="3" transform="rotate(180 166.24052359384174 0)" font-family="sans-serif">事故级别</text></g><g class="relationship" transform="translate(365.13529101512444 209.53187830816933) rotate(196.17922350779662)"><path class="outline" fill="#A5ABB6" stroke="none" d="M 40 0.5 L 138.1945159984713 0.5 L 138.1945159984713 -0.5 L 40 -0.5 Z M 176.1945159984713 0.5 L 274.3890319969426 0.5 L 274.3890319969426 3.5 L 281.3890319969426 0 L 274.3890319969426 -3.5 L 274.3890319969426 -0.5 L 176.1945159984713 -0.5 Z"/><text text-anchor="middle" pointer-events="none" font-size="8px" fill="#000000" x="157.1945159984713" y="3" transform="rotate(180 157.1945159984713 0)" font-family="sans-serif">专业属性</text></g><g class="relationship" transform="translate(365.13529101512444 209.53187830816933) rotate(215.15221809431017)"><path class="outline" fill="#A5ABB6" stroke="none" d="M 40 0.5 L 136.43082718296645 0.5 L 136.43082718296645 -0.5 L 40 -0.5 Z M 158.43082718296645 0.5 L 254.8616543659329 0.5 L 254.8616543659329 3.5 L 261.8616543659329 0 L 254.8616543659329 -3.5 L 254.8616543659329 -0.5 L 158.43082718296645 -0.5 Z"/><text text-anchor="middle" pointer-events="none" font-size="8px" fill="#000000" x="147.43082718296645" y="3" transform="rotate(180 147.43082718296645 0)" font-family="sans-serif">部门</text></g><g class="relationship" transform="translate(313.28260936526215 -39.57389731808996) rotate(494.5417285741105)"><path class="outline" fill="#A5ABB6" stroke="none" d="M 40 0.5 L 121.0256607796731 0.5 L 121.0256607796731 -0.5 L 40 -0.5 Z M 159.0256607796731 0.5 L 240.0513215593462 0.5 L 240.0513215593462 3.5 L 247.0513215593462 0 L 240.0513215593462 -3.5 L 240.0513215593462 -0.5 L 159.0256607796731 -0.5 Z"/><text text-anchor="middle" pointer-events="none" font-size="8px" fill="#000000" x="140.0256607796731" y="3" transform="rotate(180 140.0256607796731 0)" font-family="sans-serif">失效形式</text></g><g class="relationship" transform="translate(313.28260936526215 -39.57389731808996) rotate(189.99811103304933)"><path class="outline" fill="#A5ABB6" stroke="none" d="M 40 0.5 L 97.43862840358109 0.5 L 97.43862840358109 -0.5 L 40 -0.5 Z M 135.4386284035811 0.5 L 192.87725680716218 0.5 L 192.87725680716218 3.5 L 199.87725680716218 0 L 192.87725680716218 -3.5 L 192.87725680716218 -0.5 L 135.4386284035811 -0.5 Z"/><text text-anchor="middle" pointer-events="none" font-size="8px" fill="#000000" x="116.43862840358109" y="3" transform="rotate(180 116.43862840358109 0)" font-family="sans-serif">失效部位</text></g><g class="relationship" transform="translate(313.28260936526215 -39.57389731808996) rotate(495.55586559323274)"><path class="outline" fill="#A5ABB6" stroke="none" d="M 40 0.5 L 91.350654128027 0.5 L 91.350654128027 -0.5 L 40 -0.5 Z M 129.350654128027 0.5 L 180.701308256054 0.5 L 180.701308256054 3.5 L 187.701308256054 0 L 180.701308256054 -3.5 L 180.701308256054 -0.5 L 129.350654128027 -0.5 Z"/><text text-anchor="middle" pointer-events="none" font-size="8px" fill="#000000" x="110.350654128027" y="3" transform="rotate(180 110.350654128027 0)" font-family="sans-serif">设备类别</text></g><g class="relationship" transform="translate(313.28260936526215 -39.57389731808996) rotate(516.3620555613727)"><path class="outline" fill="#A5ABB6" stroke="none" d="M 40 0.5 L 115.21925275222404 0.5 L 115.21925275222404 -0.5 L 40 -0.5 Z M 153.21925275222404 0.5 L 228.43850550444807 0.5 L 228.43850550444807 3.5 L 235.43850550444807 0 L 228.43850550444807 -3.5 L 228.43850550444807 -0.5 L 153.21925275222404 -0.5 Z"/><text text-anchor="middle" pointer-events="none" font-size="8px" fill="#000000" x="134.21925275222404" y="3" transform="rotate(180 134.21925275222404 0)" font-family="sans-serif">事故级别</text></g><g class="relationship" transform="translate(313.28260936526215 -39.57389731808996) rotate(505.96255203578653)"><path class="outline" fill="#A5ABB6" stroke="none" d="M 40 0.5 L 131.25917970858572 0.5 L 131.25917970858572 -0.5 L 40 -0.5 Z M 169.25917970858572 0.5 L 260.51835941717144 0.5 L 260.51835941717144 3.5 L 267.51835941717144 0 L 260.51835941717144 -3.5 L 260.51835941717144 -0.5 L 169.25917970858572 -0.5 Z"/><text text-anchor="middle" pointer-events="none" font-size="8px" fill="#000000" x="150.25917970858572" y="3" transform="rotate(180 150.25917970858572 0)" font-family="sans-serif">专业属性</text></g><g class="relationship" transform="translate(313.28260936526215 -39.57389731808996) rotate(515.3218128620177)"><path class="outline" fill="#A5ABB6" stroke="none" d="M 40 0.5 L 93.52782478009968 0.5 L 93.52782478009968 -0.5 L 40 -0.5 Z M 115.52782478009968 0.5 L 169.05564956019936 0.5 L 169.05564956019936 3.5 L 176.05564956019936 0 L 169.05564956019936 -3.5 L 169.05564956019936 -0.5 L 115.52782478009968 -0.5 Z"/><text text-anchor="middle" pointer-events="none" font-size="8px" fill="#000000" x="104.52782478009968" y="3" transform="rotate(180 104.52782478009968 0)" font-family="sans-serif">部门</text></g><g class="relationship" transform="translate(313.28260936526215 -39.57389731808996) rotate(413.2544563185418)"><path class="outline" fill="#A5ABB6" stroke="none" d="M 40 0.5 L 54.020752386172475 0.5 L 54.020752386172475 -0.5 L 40 -0.5 Z M 100.02075238617248 0.5 L 114.04150477234495 0.5 L 114.04150477234495 3.5 L 121.04150477234495 0 L 114.04150477234495 -3.5 L 114.04150477234495 -0.5 L 100.02075238617248 -0.5 Z"/><text text-anchor="middle" pointer-events="none" font-size="8px" fill="#000000" x="77.02075238617248" y="3" font-family="sans-serif">作业线代码</text></g><g class="relationship" transform="translate(313.28260936526215 -39.57389731808996) rotate(441.76718619333235)"><path class="outline" fill="#A5ABB6" stroke="none" d="M 40 0.5 L 50.15368510274848 0.5 L 50.15368510274848 -0.5 L 40 -0.5 Z M 88.15368510274848 0.5 L 98.30737020549697 0.5 L 98.30737020549697 3.5 L 105.30737020549697 0 L 98.30737020549697 -3.5 L 98.30737020549697 -0.5 L 88.15368510274848 -0.5 Z"/><text text-anchor="middle" pointer-events="none" font-size="8px" fill="#000000" x="69.15368510274848" y="3" font-family="sans-serif">确认状态</text></g><g class="relationship" transform="translate(313.28260936526215 -39.57389731808996) rotate(365.6813079467057)"><path class="outline" fill="#A5ABB6" stroke="none" d="M 40 0.5 L 46.822876054122375 0.5 L 46.822876054122375 -0.5 L 40 -0.5 Z M 100.82287605412237 0.5 L 107.64575210824475 0.5 L 107.64575210824475 3.5 L 114.64575210824475 0 L 107.64575210824475 -3.5 L 107.64575210824475 -0.5 L 100.82287605412237 -0.5 Z"/><text text-anchor="middle" pointer-events="none" font-size="8px" fill="#000000" x="73.82287605412237" y="3" font-family="sans-serif">停机开始时间</text></g><g class="relationship" transform="translate(313.28260936526215 -39.57389731808996) rotate(333.83134153712695)"><path class="outline" fill="#A5ABB6" stroke="none" d="M 40 0.5 L 47.274581057373766 0.5 L 47.274581057373766 -0.5 L 40 -0.5 Z M 101.27458105737377 0.5 L 108.54916211474753 0.5 L 108.54916211474753 3.5 L 115.54916211474753 0 L 108.54916211474753 -3.5 L 108.54916211474753 -0.5 L 101.27458105737377 -0.5 Z"/><text text-anchor="middle" pointer-events="none" font-size="8px" fill="#000000" x="74.27458105737377" y="3" font-family="sans-serif">停机结束时间</text></g><g class="relationship" transform="translate(313.28260936526215 -39.57389731808996) rotate(303.77770222060445)"><path class="outline" fill="#A5ABB6" stroke="none" d="M 40 0.5 L 52.370976902244465 0.5 L 52.370976902244465 -0.5 L 40 -0.5 Z M 98.37097690224446 0.5 L 110.74195380448893 0.5 L 110.74195380448893 3.5 L 117.74195380448893 0 L 110.74195380448893 -3.5 L 110.74195380448893 -0.5 L 98.37097690224446 -0.5 Z"/><text text-anchor="middle" pointer-events="none" font-size="8px" fill="#000000" x="75.37097690224446" y="3" font-family="sans-serif">停机总时间</text></g><g class="relationship" transform="translate(313.28260936526215 -39.57389731808996) rotate(275.9117943574903)"><path class="outline" fill="#A5ABB6" stroke="none" d="M 40 0.5 L 57.82475146580184 0.5 L 57.82475146580184 -0.5 L 40 -0.5 Z M 95.82475146580184 0.5 L 113.64950293160368 0.5 L 113.64950293160368 3.5 L 120.64950293160368 0 L 113.64950293160368 -3.5 L 113.64950293160368 -0.5 L 95.82475146580184 -0.5 Z"/><text text-anchor="middle" pointer-events="none" font-size="8px" fill="#000000" x="76.82475146580184" y="3" font-family="sans-serif">原因属性</text></g><g class="relationship" transform="translate(313.28260936526215 -39.57389731808996) rotate(250.3138893314421)"><path class="outline" fill="#A5ABB6" stroke="none" d="M 40 0.5 L 63.709698792894244 0.5 L 63.709698792894244 -0.5 L 40 -0.5 Z M 93.70969879289424 0.5 L 117.41939758578849 0.5 L 117.41939758578849 3.5 L 124.41939758578849 0 L 117.41939758578849 -3.5 L 117.41939758578849 -0.5 L 93.70969879289424 -0.5 Z"/><text text-anchor="middle" pointer-events="none" font-size="8px" fill="#000000" x="78.70969879289424" y="3" transform="rotate(180 78.70969879289424 0)" font-family="sans-serif">责任人</text></g><g class="relationship" transform="translate(313.28260936526215 -39.57389731808996) rotate(224.18388746829487)"><path class="outline" fill="#A5ABB6" stroke="none" d="M 40 0.5 L 55.3231526441965 0.5 L 55.3231526441965 -0.5 L 40 -0.5 Z M 93.3231526441965 0.5 L 108.646305288393 0.5 L 108.646305288393 3.5 L 115.646305288393 0 L 108.646305288393 -3.5 L 108.646305288393 -0.5 L 93.3231526441965 -0.5 Z"/><text text-anchor="middle" pointer-events="none" font-size="8px" fill="#000000" x="74.3231526441965" y="3" transform="rotate(180 74.3231526441965 0)" font-family="sans-serif">整改进度</text></g><g class="relationship" transform="translate(365.13529101512444 209.53187830816933) rotate(254.55533224438375)"><path class="outline" fill="#A5ABB6" stroke="none" d="M 40 0.5 L 47.32118914251195 0.5 L 47.32118914251195 -0.5 L 40 -0.5 Z M 85.32118914251194 0.5 L 92.6423782850239 0.5 L 92.6423782850239 3.5 L 99.6423782850239 0 L 92.6423782850239 -3.5 L 92.6423782850239 -0.5 L 85.32118914251194 -0.5 Z"/><text text-anchor="middle" pointer-events="none" font-size="8px" fill="#000000" x="66.32118914251194" y="3" transform="rotate(180 66.32118914251194 0)" font-family="sans-serif">确认状态</text></g><g class="relationship" transform="translate(365.13529101512444 209.53187830816933) rotate(285.05138734704644)"><path class="outline" fill="#A5ABB6" stroke="none" d="M 40 0.5 L 49.38748186511819 0.5 L 49.38748186511819 -0.5 L 40 -0.5 Z M 95.38748186511819 0.5 L 104.77496373023638 0.5 L 104.77496373023638 3.5 L 111.77496373023638 0 L 104.77496373023638 -3.5 L 104.77496373023638 -0.5 L 95.38748186511819 -0.5 Z"/><text text-anchor="middle" pointer-events="none" font-size="8px" fill="#000000" x="72.38748186511819" y="3" font-family="sans-serif">作业线代码</text></g><g class="relationship" transform="translate(-151.6001099481402 253.7175997987375) rotate(488.97059711654754)"><path class="outline" fill="#A5ABB6" stroke="none" d="M 40 0.5 L 43.06441181443732 0.5 L 43.06441181443732 -0.5 L 40 -0.5 Z M 97.06441181443732 0.5 L 100.12882362887464 0.5 L 100.12882362887464 3.5 L 107.12882362887464 0 L 100.12882362887464 -3.5 L 100.12882362887464 -0.5 L 97.06441181443732 -0.5 Z"/><text text-anchor="middle" pointer-events="none" font-size="8px" fill="#000000" x="70.06441181443732" y="3" transform="rotate(180 70.06441181443732 0)" font-family="sans-serif">停机开始时间</text></g><g class="relationship" transform="translate(-151.6001099481402 253.7175997987375) rotate(452.97030851899507)"><path class="outline" fill="#A5ABB6" stroke="none" d="M 40 0.5 L 41.20278971725739 0.5 L 41.20278971725739 -0.5 L 40 -0.5 Z M 95.20278971725739 0.5 L 96.40557943451478 0.5 L 96.40557943451478 3.5 L 103.40557943451478 0 L 96.40557943451478 -3.5 L 96.40557943451478 -0.5 L 95.20278971725739 -0.5 Z"/><text text-anchor="middle" pointer-events="none" font-size="8px" fill="#000000" x="68.20278971725739" y="3" transform="rotate(180 68.20278971725739 0)" font-family="sans-serif">停机结束时间</text></g><g class="relationship" transform="translate(-151.6001099481402 253.7175997987375) rotate(536.0223043276739)"><path class="outline" fill="#A5ABB6" stroke="none" d="M 40 0.5 L 46.28741911177379 0.5 L 46.28741911177379 -0.5 L 40 -0.5 Z M 92.28741911177379 0.5 L 98.57483822354757 0.5 L 98.57483822354757 3.5 L 105.57483822354757 0 L 98.57483822354757 -3.5 L 98.57483822354757 -0.5 L 92.28741911177379 -0.5 Z"/><text text-anchor="middle" pointer-events="none" font-size="8px" fill="#000000" x="69.28741911177379" y="3" transform="rotate(180 69.28741911177379 0)" font-family="sans-serif">停机总时间</text></g><g class="relationship" transform="translate(-151.6001099481402 253.7175997987375) rotate(364.9717007940651)"><path class="outline" fill="#A5ABB6" stroke="none" d="M 40 0.5 L 100.41671829440676 0.5 L 100.41671829440676 -0.5 L 40 -0.5 Z M 138.41671829440676 0.5 L 198.83343658881353 0.5 L 198.83343658881353 3.5 L 205.83343658881353 0 L 198.83343658881353 -3.5 L 198.83343658881353 -0.5 L 138.41671829440676 -0.5 Z"/><text text-anchor="middle" pointer-events="none" font-size="8px" fill="#000000" x="119.41671829440676" y="3" font-family="sans-serif">失效部位</text></g><g class="relationship" transform="translate(365.13529101512444 209.53187830816933) rotate(527.3829110419729)"><path class="outline" fill="#A5ABB6" stroke="none" d="M 40 0.5 L 131.93342217911706 0.5 L 131.93342217911706 -0.5 L 40 -0.5 Z M 169.93342217911706 0.5 L 261.8668443582341 0.5 L 261.8668443582341 3.5 L 268.8668443582341 0 L 261.8668443582341 -3.5 L 261.8668443582341 -0.5 L 169.93342217911706 -0.5 Z"/><text text-anchor="middle" pointer-events="none" font-size="8px" fill="#000000" x="150.93342217911706" y="3" transform="rotate(180 150.93342217911706 0)" font-family="sans-serif">失效部位</text></g><g class="relationship" transform="translate(365.13529101512444 209.53187830816933) rotate(432.3172448542833)"><path class="outline" fill="#A5ABB6" stroke="none" d="M 40 0.5 L 47.468868381672976 0.5 L 47.468868381672976 -0.5 L 40 -0.5 Z M 101.46886838167298 0.5 L 108.93773676334595 0.5 L 108.93773676334595 3.5 L 115.93773676334595 0 L 108.93773676334595 -3.5 L 108.93773676334595 -0.5 L 101.46886838167298 -0.5 Z"/><text text-anchor="middle" pointer-events="none" font-size="8px" fill="#000000" x="74.46886838167298" y="3" font-family="sans-serif">停机开始时间</text></g><g class="relationship" transform="translate(365.13529101512444 209.53187830816933) rotate(399.07628750665657)"><path class="outline" fill="#A5ABB6" stroke="none" d="M 40 0.5 L 44.941905159754384 0.5 L 44.941905159754384 -0.5 L 40 -0.5 Z M 98.94190515975438 0.5 L 103.88381031950877 0.5 L 103.88381031950877 3.5 L 110.88381031950877 0 L 103.88381031950877 -3.5 L 103.88381031950877 -0.5 L 98.94190515975438 -0.5 Z"/><text text-anchor="middle" pointer-events="none" font-size="8px" fill="#000000" x="71.94190515975438" y="3" font-family="sans-serif">停机结束时间</text></g><g class="relationship" transform="translate(365.13529101512444 209.53187830816933) rotate(487.463450648359)"><path class="outline" fill="#A5ABB6" stroke="none" d="M 40 0.5 L 52.445601702383385 0.5 L 52.445601702383385 -0.5 L 40 -0.5 Z M 98.44560170238339 0.5 L 110.89120340476677 0.5 L 110.89120340476677 3.5 L 117.89120340476677 0 L 110.89120340476677 -3.5 L 110.89120340476677 -0.5 L 98.44560170238339 -0.5 Z"/><text text-anchor="middle" pointer-events="none" font-size="8px" fill="#000000" x="75.44560170238339" y="3" transform="rotate(180 75.44560170238339 0)" font-family="sans-serif">停机总时间</text></g><g class="relationship" transform="translate(365.13529101512444 209.53187830816933) rotate(359.7583134610437)"><path class="outline" fill="#A5ABB6" stroke="none" d="M 40 0.5 L 47.770419553765294 0.5 L 47.770419553765294 -0.5 L 40 -0.5 Z M 93.7704195537653 0.5 L 101.54083910753059 0.5 L 101.54083910753059 3.5 L 108.54083910753059 0 L 101.54083910753059 -3.5 L 101.54083910753059 -0.5 L 93.7704195537653 -0.5 Z"/><text text-anchor="middle" pointer-events="none" font-size="8px" fill="#000000" x="70.7704195537653" y="3" font-family="sans-serif">故障总时间</text></g><g class="relationship" transform="translate(365.13529101512444 209.53187830816933) rotate(460.58680022852514)"><path class="outline" fill="#A5ABB6" stroke="none" d="M 40 0.5 L 58.46080521472801 0.5 L 58.46080521472801 -0.5 L 40 -0.5 Z M 96.46080521472801 0.5 L 114.92161042945602 0.5 L 114.92161042945602 3.5 L 121.92161042945602 0 L 114.92161042945602 -3.5 L 114.92161042945602 -0.5 L 96.46080521472801 -0.5 Z"/><text text-anchor="middle" pointer-events="none" font-size="8px" fill="#000000" x="77.46080521472801" y="3" transform="rotate(180 77.46080521472801 0)" font-family="sans-serif">直接损失</text></g></g><g class="layer nodes"><g class="node" transform="translate(-151.6001099481402,253.7175997987375)"><circle class="outline" cx="0" cy="0" r="40" fill="#57C7E3" stroke="#23b3d7" stroke-width="2px"/><text text-anchor="middle" pointer-events="none" font-family="sans-serif" dy="2.5" font-size="40" fill="#2A2C34"/><text text-anchor="middle" pointer-events="none" x="0" y="5" font-size="10px" fill="#2A2C34" font-family="sans-serif"> 310701E01-G2…</text></g><g class="node" transform="translate(365.13529101512444,209.53187830816933)"><circle class="outline" cx="0" cy="0" r="40" fill="#57C7E3" stroke="#23b3d7" stroke-width="2px"/><text text-anchor="middle" pointer-events="none" font-family="sans-serif" dy="2.5" font-size="40" fill="#2A2C34"/><text text-anchor="middle" pointer-events="none" x="0" y="5" font-size="10px" fill="#2A2C34" font-family="sans-serif"> 310701E06-G2…</text></g><g class="node" transform="translate(-116.15331275017111,-49.00007373918043)"><circle class="outline" cx="0" cy="0" r="40" fill="#57C7E3" stroke="#23b3d7" stroke-width="2px"/><text text-anchor="middle" pointer-events="none" font-family="sans-serif" dy="2.5" font-size="40" fill="#2A2C34"/><text text-anchor="middle" pointer-events="none" x="0" y="5" font-size="10px" fill="#2A2C34" font-family="sans-serif"> 310701E04-G2…</text></g><g class="node" transform="translate(313.28260936526215,-39.57389731808996)"><circle class="outline" cx="0" cy="0" r="40" fill="#57C7E3" stroke="#23b3d7" stroke-width="2px"/><text text-anchor="middle" pointer-events="none" font-family="sans-serif" dy="2.5" font-size="40" fill="#2A2C34"/><text text-anchor="middle" pointer-events="none" x="0" y="5" font-size="10px" fill="#2A2C34" font-family="sans-serif"> 310771E05-G2…</text></g><g class="node" transform="translate(-201.25904632507712,96.70426844741037)"><circle class="outline" cx="0" cy="0" r="25" fill="#4C8EDA" stroke="#2870c2" stroke-width="2px"/><text text-anchor="middle" pointer-events="none" font-family="sans-serif" dy="1.5625" font-size="25" fill="#FFFFFF"/><text text-anchor="middle" pointer-events="none" x="0" y="5" font-size="10px" fill="#FFFFFF" font-family="sans-serif"> 2050热…</text></g><g class="node" transform="translate(130.5899359799236,44.371092475177036)"><circle class="outline" cx="0" cy="0" r="25" fill="#604A0E" stroke="#423204" stroke-width="2px"/><text text-anchor="middle" pointer-events="none" font-family="sans-serif" dy="1.5625" font-size="25" fill="#FFFFFF"/><text text-anchor="middle" pointer-events="none" x="0" y="5" font-size="10px" fill="#FFFFFF" font-family="sans-serif"> 热轧厂</text></g><g class="node" transform="translate(70.88086103620152,124.15875978832922)"><circle class="outline" cx="0" cy="0" r="25" fill="#C990C0" stroke="#b261a5" stroke-width="2px"/><text text-anchor="middle" pointer-events="none" font-family="sans-serif" dy="1.5625" font-size="25" fill="#FFFFFF"/><text text-anchor="middle" pointer-events="none" x="0" y="5" font-size="10px" fill="#FFFFFF" font-family="sans-serif"> E---电气</text></g><g class="node" transform="translate(74.69557282952033,64.85043483913783)"><circle class="outline" cx="0" cy="0" r="25" fill="#F16667" stroke="#eb2728" stroke-width="2px"/><text text-anchor="middle" pointer-events="none" font-family="sans-serif" dy="1.5625" font-size="25" fill="#FFFFFF"/><text text-anchor="middle" pointer-events="none" x="0" y="5" font-size="10px" fill="#FFFFFF" font-family="sans-serif"> 故障</text></g><g class="node" transform="translate(12.575040226722354,137.58351524130174)"><circle class="outline" cx="0" cy="0" r="25" fill="#8DCC93" stroke="#5db665" stroke-width="2px"/><text text-anchor="middle" pointer-events="none" font-family="sans-serif" dy="1.5625" font-size="25" fill="#2A2C34"/><text text-anchor="middle" pointer-events="none" x="0" y="5" font-size="10px" fill="#2A2C34" font-family="sans-serif"> 沈政</text></g><g class="node" transform="translate(52.85861145539632,181.58676053598333)"><circle class="outline" cx="0" cy="0" r="25" fill="#DA7194" stroke="#cc3c6c" stroke-width="2px"/><text text-anchor="middle" pointer-events="none" font-family="sans-serif" dy="1.5625" font-size="25" fill="#FFFFFF"/><text text-anchor="middle" pointer-events="none" x="0" y="5" font-size="10px" fill="#FFFFFF" font-family="sans-serif"> 生产厂部…</text></g><g class="node" transform="translate(-141.6566204252596,103.05552163679448)"><circle class="outline" cx="0" cy="0" r="25" fill="#FFC454" stroke="#d7a013" stroke-width="2px"/><text text-anchor="middle" pointer-events="none" font-family="sans-serif" dy="1.5625" font-size="25" fill="#2A2C34"/><text text-anchor="middle" pointer-events="none" x="0" y="5" font-size="10px" fill="#2A2C34" font-family="sans-serif"> 设备部已…</text></g><g class="node" transform="translate(161.42801489867497,109.36242690546965)"><circle class="outline" cx="0" cy="0" r="25" fill="#A5ABB6" stroke="#9AA1AC" stroke-width="2px"/><text text-anchor="middle" pointer-events="none" font-family="sans-serif" dy="1.5625" font-size="25" fill="#FFFFFF"/><text text-anchor="middle" pointer-events="none" x="0" y="5" font-size="10px" fill="#FFFFFF" font-family="sans-serif"> 交流鼠笼…</text></g><g class="node" transform="translate(122.45804824538466,154.32790369364108)"><circle class="outline" cx="0" cy="0" r="25" fill="#F79767" stroke="#f36924" stroke-width="2px"/><text text-anchor="middle" pointer-events="none" font-family="sans-serif" dy="1.5625" font-size="25" fill="#FFFFFF"/><text text-anchor="middle" pointer-events="none" x="0" y="5" font-size="10px" fill="#FFFFFF" font-family="sans-serif"> EDL00-…</text></g><g class="node" transform="translate(-250.0288868633797,-63.94768377363628)"><circle class="outline" cx="0" cy="0" r="25" fill="#569480" stroke="#447666" stroke-width="2px"/><text text-anchor="middle" pointer-events="none" font-family="sans-serif" dy="1.5625" font-size="25" fill="#FFFFFF"/><text text-anchor="middle" pointer-events="none" x="0" y="5" font-size="10px" fill="#FFFFFF" font-family="sans-serif"> 2020-05…</text></g><g class="node" transform="translate(-113.9802117359922,-185.19385508161184)"><circle class="outline" cx="0" cy="0" r="25" fill="#A5ABB6" stroke="#9AA1AC" stroke-width="2px"/><text text-anchor="middle" pointer-events="none" font-family="sans-serif" dy="1.5625" font-size="25" fill="#FFFFFF"/><text text-anchor="middle" pointer-events="none" x="0" y="5" font-size="10px" fill="#FFFFFF" font-family="sans-serif"> 2020-05…</text></g><g class="node" transform="translate(91.82045609398887,-78.61612186492428)"><circle class="outline" cx="0" cy="0" r="25" fill="#A5ABB6" stroke="#9AA1AC" stroke-width="2px"/><text text-anchor="middle" pointer-events="none" font-family="sans-serif" dy="1.5625" font-size="25" fill="#FFFFFF"/><text text-anchor="middle" pointer-events="none" x="0" y="5" font-size="10px" fill="#FFFFFF" font-family="sans-serif"> GDL00-…</text></g><g class="node" transform="translate(-205.04554765546385,-150.59065187422942)"><circle class="outline" cx="0" cy="0" r="25" fill="#57C7E3" stroke="#23b3d7" stroke-width="2px"/><text text-anchor="middle" pointer-events="none" font-family="sans-serif" dy="1.5625" font-size="25" fill="#2A2C34"/><text text-anchor="middle" pointer-events="none" x="0" y="5" font-size="10px" fill="#2A2C34" font-family="sans-serif"> EHJ00-…</text></g><g class="node" transform="translate(400.6537328824461,77.44921104737705)"><circle class="outline" cx="0" cy="0" r="25" fill="#4C8EDA" stroke="#2870c2" stroke-width="2px"/><text text-anchor="middle" pointer-events="none" font-family="sans-serif" dy="1.5625" font-size="25" fill="#FFFFFF"/><text text-anchor="middle" pointer-events="none" x="0" y="5" font-size="10px" fill="#FFFFFF" font-family="sans-serif"> 2050热…</text></g><g class="node" transform="translate(331.9420727974418,89.39057513186654)"><circle class="outline" cx="0" cy="0" r="25" fill="#FFC454" stroke="#d7a013" stroke-width="2px"/><text text-anchor="middle" pointer-events="none" font-family="sans-serif" dy="1.5625" font-size="25" fill="#2A2C34"/><text text-anchor="middle" pointer-events="none" x="0" y="5" font-size="10px" fill="#2A2C34" font-family="sans-serif"> 新增</text></g><g class="node" transform="translate(452.2424102099978,-25.749649379458624)"><circle class="outline" cx="0" cy="0" r="25" fill="#569480" stroke="#447666" stroke-width="2px"/><text text-anchor="middle" pointer-events="none" font-family="sans-serif" dy="1.5625" font-size="25" fill="#FFFFFF"/><text text-anchor="middle" pointer-events="none" x="0" y="5" font-size="10px" fill="#FFFFFF" font-family="sans-serif"> 2020-06…</text></g><g class="node" transform="translate(439.42544650492727,-101.55818250000928)"><circle class="outline" cx="0" cy="0" r="25" fill="#A5ABB6" stroke="#9AA1AC" stroke-width="2px"/><text text-anchor="middle" pointer-events="none" font-family="sans-serif" dy="1.5625" font-size="25" fill="#FFFFFF"/><text text-anchor="middle" pointer-events="none" x="0" y="5" font-size="10px" fill="#FFFFFF" font-family="sans-serif"> 2020-06…</text></g><g class="node" transform="translate(392.64316451854023,-158.22113774822537)"><circle class="outline" cx="0" cy="0" r="25" fill="#569480" stroke="#447666" stroke-width="2px"/><text text-anchor="middle" pointer-events="none" font-family="sans-serif" dy="1.5625" font-size="25" fill="#FFFFFF"/><text text-anchor="middle" pointer-events="none" x="0" y="5" font-size="10px" fill="#FFFFFF" font-family="sans-serif"> 0.62</text></g><g class="node" transform="translate(328.2841141200922,-184.4487832000607)"><circle class="outline" cx="0" cy="0" r="25" fill="#F79767" stroke="#f36924" stroke-width="2px"/><text text-anchor="middle" pointer-events="none" font-family="sans-serif" dy="1.5625" font-size="25" fill="#FFFFFF"/><text text-anchor="middle" pointer-events="none" x="0" y="5" font-size="10px" fill="#FFFFFF" font-family="sans-serif"> 其他</text></g><g class="node" transform="translate(262.94814181943474,-180.2600649102807)"><circle class="outline" cx="0" cy="0" r="25" fill="#8DCC93" stroke="#5db665" stroke-width="2px"/><text text-anchor="middle" pointer-events="none" font-family="sans-serif" dy="1.5625" font-size="25" fill="#2A2C34"/><text text-anchor="middle" pointer-events="none" x="0" y="5" font-size="10px" fill="#2A2C34" font-family="sans-serif"> 潘小兵</text></g><g class="node" transform="translate(212.4242108248893,-137.59923401808376)"><circle class="outline" cx="0" cy="0" r="25" fill="#DA7194" stroke="#cc3c6c" stroke-width="2px"/><text text-anchor="middle" pointer-events="none" font-family="sans-serif" dy="1.5625" font-size="25" fill="#FFFFFF"/><text text-anchor="middle" pointer-events="none" x="0" y="5" font-size="10px" fill="#FFFFFF" font-family="sans-serif"> 作业长已…</text></g><g class="node" transform="translate(-234.69876719386608,356.44363932868157)"><circle class="outline" cx="0" cy="0" r="25" fill="#569480" stroke="#447666" stroke-width="2px"/><text text-anchor="middle" pointer-events="none" font-family="sans-serif" dy="1.5625" font-size="25" fill="#FFFFFF"/><text text-anchor="middle" pointer-events="none" x="0" y="5" font-size="10px" fill="#FFFFFF" font-family="sans-serif"> 2020-01…</text></g><g class="node" transform="translate(-158.2538874461208,381.95066914873337)"><circle class="outline" cx="0" cy="0" r="25" fill="#A5ABB6" stroke="#9AA1AC" stroke-width="2px"/><text text-anchor="middle" pointer-events="none" font-family="sans-serif" dy="1.5625" font-size="25" fill="#FFFFFF"/><text text-anchor="middle" pointer-events="none" x="0" y="5" font-size="10px" fill="#FFFFFF" font-family="sans-serif"> 2020-01…</text></g><g class="node" transform="translate(-281.86041032832605,262.7753325155586)"><circle class="outline" cx="0" cy="0" r="25" fill="#569480" stroke="#447666" stroke-width="2px"/><text text-anchor="middle" pointer-events="none" font-family="sans-serif" dy="1.5625" font-size="25" fill="#FFFFFF"/><text text-anchor="middle" pointer-events="none" x="0" y="5" font-size="10px" fill="#FFFFFF" font-family="sans-serif"> 0.92</text></g><g class="node" transform="translate(78.3648444698934,273.72247887644085)"><circle class="outline" cx="0" cy="0" r="25" fill="#A5ABB6" stroke="#9AA1AC" stroke-width="2px"/><text text-anchor="middle" pointer-events="none" font-family="sans-serif" dy="1.5625" font-size="25" fill="#FFFFFF"/><text text-anchor="middle" pointer-events="none" x="0" y="5" font-size="10px" fill="#FFFFFF" font-family="sans-serif"> EDZ00-…</text></g><g class="node" transform="translate(407.94460928537757,343.81072218616214)"><circle class="outline" cx="0" cy="0" r="25" fill="#569480" stroke="#447666" stroke-width="2px"/><text text-anchor="middle" pointer-events="none" font-family="sans-serif" dy="1.5625" font-size="25" fill="#FFFFFF"/><text text-anchor="middle" pointer-events="none" x="0" y="5" font-size="10px" fill="#FFFFFF" font-family="sans-serif"> 2020-01…</text></g><g class="node" transform="translate(470.6228920886435,295.186860222255)"><circle class="outline" cx="0" cy="0" r="25" fill="#A5ABB6" stroke="#9AA1AC" stroke-width="2px"/><text text-anchor="middle" pointer-events="none" font-family="sans-serif" dy="1.5625" font-size="25" fill="#FFFFFF"/><text text-anchor="middle" pointer-events="none" x="0" y="5" font-size="10px" fill="#FFFFFF" font-family="sans-serif"> 2020-01…</text></g><g class="node" transform="translate(278.22097066493575,322.9505581123674)"><circle class="outline" cx="0" cy="0" r="25" fill="#569480" stroke="#447666" stroke-width="2px"/><text text-anchor="middle" pointer-events="none" font-family="sans-serif" dy="1.5625" font-size="25" fill="#FFFFFF"/><text text-anchor="middle" pointer-events="none" x="0" y="5" font-size="10px" fill="#FFFFFF" font-family="sans-serif"> 0.83</text></g><g class="node" transform="translate(498.6749420496685,208.96857455746206)"><circle class="outline" cx="0" cy="0" r="25" fill="#A5ABB6" stroke="#9AA1AC" stroke-width="2px"/><text text-anchor="middle" pointer-events="none" font-family="sans-serif" dy="1.5625" font-size="25" fill="#FFFFFF"/><text text-anchor="middle" pointer-events="none" x="0" y="5" font-size="10px" fill="#FFFFFF" font-family="sans-serif"> 0.83</text></g><g class="node" transform="translate(338.1421331829139,353.9525452552175)"><circle class="outline" cx="0" cy="0" r="25" fill="#A5ABB6" stroke="#9AA1AC" stroke-width="2px"/><text text-anchor="middle" pointer-events="none" font-family="sans-serif" dy="1.5625" font-size="25" fill="#FFFFFF"/><text text-anchor="middle" pointer-events="none" x="0" y="5" font-size="10px" fill="#FFFFFF" font-family="sans-serif"> 0.22</text></g></g></svg>