<svg xmlns="http://www.w3.org/2000/svg" width="708.386474609375" height="539.017822265625" viewBox="-248.30235290527344 -179.50930786132812 708.386474609375 539.017822265625"><title>Neo4j Graph Visualization</title><desc>Created using Neo4j (http://www.neo4j.com/)</desc><g class="layer relationships"><g class="relationship" transform="translate(224.97246429105817 225.756505178539) rotate(223.32398210087342)"><path class="outline" fill="#A5ABB6" stroke="none" d="M 32.5 0.5 L 68.04216310319957 0.5 L 68.04216310319957 -0.5 L 32.5 -0.5 Z M 122.04216310319957 0.5 L 157.58432620639914 0.5 L 157.58432620639914 3.5 L 164.58432620639914 0 L 157.58432620639914 -3.5 L 157.58432620639914 -0.5 L 122.04216310319957 -0.5 Z"/><text text-anchor="middle" pointer-events="none" font-size="8px" fill="#000000" x="95.04216310319957" y="3" transform="rotate(180 95.04216310319957 0)" font-family="sans-serif">故障失效形式</text></g><g class="relationship" transform="translate(200.16383377057318 -55.938576585538456) rotate(491.26941669082225)"><path class="outline" fill="#A5ABB6" stroke="none" d="M 32.5 0.5 L 59.76411569076373 0.5 L 59.76411569076373 -0.5 L 32.5 -0.5 Z M 113.76411569076373 0.5 L 141.02823138152746 0.5 L 141.02823138152746 3.5 L 148.02823138152746 0 L 141.02823138152746 -3.5 L 141.02823138152746 -0.5 L 113.76411569076373 -0.5 Z"/><text text-anchor="middle" pointer-events="none" font-size="8px" fill="#000000" x="86.76411569076373" y="3" transform="rotate(180 86.76411569076373 0)" font-family="sans-serif">故障失效形式</text></g><g class="relationship" transform="translate(-76.29150611521499 -57.61841319420019) rotate(403.17240838054147)"><path class="outline" fill="#A5ABB6" stroke="none" d="M 32.5 0.5 L 70.25582013483334 0.5 L 70.25582013483334 -0.5 L 32.5 -0.5 Z M 124.25582013483334 0.5 L 162.01164026966669 0.5 L 162.01164026966669 3.5 L 169.01164026966669 0 L 162.01164026966669 -3.5 L 162.01164026966669 -0.5 L 124.25582013483334 -0.5 Z"/><text text-anchor="middle" pointer-events="none" font-size="8px" fill="#000000" x="97.25582013483334" y="3" font-family="sans-serif">故障失效形式</text></g><g class="relationship" transform="translate(-71.61060961876879 225.55710972893226) rotate(316.50811888241265)"><path class="outline" fill="#A5ABB6" stroke="none" d="M 32.5 0.5 L 67.58090131270063 0.5 L 67.58090131270063 -0.5 L 32.5 -0.5 Z M 121.58090131270063 0.5 L 156.66180262540126 0.5 L 156.66180262540126 3.5 L 163.66180262540126 0 L 156.66180262540126 -3.5 L 156.66180262540126 -0.5 L 121.58090131270063 -0.5 Z"/><text text-anchor="middle" pointer-events="none" font-size="8px" fill="#000000" x="94.58090131270063" y="3" font-family="sans-serif">故障失效形式</text></g><g class="relationship" transform="translate(-76.29150611521499 -57.61841319420019) rotate(334.73308704002034)"><path class="outline" fill="#A5ABB6" stroke="none" d="M 32.5 0.5 L 48.03953808623885 0.5 L 48.03953808623885 -0.5 L 32.5 -0.5 Z M 110.03953808623885 0.5 L 125.5790761724777 0.5 L 125.5790761724777 3.5 L 132.5790761724777 0 L 125.5790761724777 -3.5 L 125.5790761724777 -0.5 L 110.03953808623885 -0.5 Z"/><text text-anchor="middle" pointer-events="none" font-size="8px" fill="#000000" x="79.03953808623885" y="3" font-family="sans-serif">故障发生的设备</text></g><g class="relationship" transform="translate(-76.29150611521499 -57.61841319420019) rotate(495.3928581259594)"><path class="outline" fill="#A5ABB6" stroke="none" d="M 32.5 0.5 L 69.68764230450054 0.5 L 69.68764230450054 -0.5 L 32.5 -0.5 Z M 131.68764230450054 0.5 L 168.87528460900108 0.5 L 168.87528460900108 3.5 L 175.87528460900108 0 L 168.87528460900108 -3.5 L 168.87528460900108 -0.5 L 131.68764230450054 -0.5 Z"/><text text-anchor="middle" pointer-events="none" font-size="8px" fill="#000000" x="100.68764230450054" y="3" transform="rotate(180 100.68764230450054 0)" font-family="sans-serif">故障发生的部位</text></g><g class="relationship" transform="translate(-76.29150611521499 -57.61841319420019) rotate(214.17588483387806)"><path class="outline" fill="#A5ABB6" stroke="none" d="M 32.5 0.5 L 55.93209578751234 0.5 L 55.93209578751234 -0.5 L 32.5 -0.5 Z M 109.93209578751234 0.5 L 133.36419157502468 0.5 L 133.36419157502468 3.5 L 140.36419157502468 0 L 133.36419157502468 -3.5 L 133.36419157502468 -0.5 L 109.93209578751234 -0.5 Z"/><text text-anchor="middle" pointer-events="none" font-size="8px" fill="#000000" x="82.93209578751234" y="3" transform="rotate(180 82.93209578751234 0)" font-family="sans-serif">故障失效原因</text></g><g class="relationship" transform="translate(224.97246429105817 225.756505178539) rotate(245.6399382287865)"><path class="outline" fill="#A5ABB6" stroke="none" d="M 32.5 0.5 L 161.701319614021 0.5 L 161.701319614021 -0.5 L 32.5 -0.5 Z M 223.701319614021 0.5 L 352.902639228042 0.5 L 352.902639228042 3.5 L 359.902639228042 0 L 352.902639228042 -3.5 L 352.902639228042 -0.5 L 223.701319614021 -0.5 Z"/><text text-anchor="middle" pointer-events="none" font-size="8px" fill="#000000" x="192.701319614021" y="3" transform="rotate(180 192.701319614021 0)" font-family="sans-serif">故障发生的设备</text></g><g class="relationship" transform="translate(200.16383377057318 -55.938576585538456) rotate(207.23323261072517)"><path class="outline" fill="#A5ABB6" stroke="none" d="M 32.5 0.5 L 44.57576972996284 0.5 L 44.57576972996284 -0.5 L 32.5 -0.5 Z M 106.57576972996284 0.5 L 118.65153945992569 0.5 L 118.65153945992569 3.5 L 125.65153945992569 0 L 118.65153945992569 -3.5 L 118.65153945992569 -0.5 L 106.57576972996284 -0.5 Z"/><text text-anchor="middle" pointer-events="none" font-size="8px" fill="#000000" x="75.57576972996284" y="3" transform="rotate(180 75.57576972996284 0)" font-family="sans-serif">故障发生的设备</text></g><g class="relationship" transform="translate(-71.61060961876879 225.55710972893226) rotate(223.89709052045248)"><path class="outline" fill="#A5ABB6" stroke="none" d="M 32.5 0.5 L 71.73026114518542 0.5 L 71.73026114518542 -0.5 L 32.5 -0.5 Z M 133.7302611451854 0.5 L 172.96052229037085 0.5 L 172.96052229037085 3.5 L 179.96052229037085 0 L 172.96052229037085 -3.5 L 172.96052229037085 -0.5 L 133.7302611451854 -0.5 Z"/><text text-anchor="middle" pointer-events="none" font-size="8px" fill="#000000" x="102.73026114518542" y="3" transform="rotate(180 102.73026114518542 0)" font-family="sans-serif">故障发生的部位</text></g><g class="relationship" transform="translate(-71.61060961876879 225.55710972893226) rotate(291.4691511405453)"><path class="outline" fill="#A5ABB6" stroke="none" d="M 32.5 0.5 L 157.53193631913538 0.5 L 157.53193631913538 -0.5 L 32.5 -0.5 Z M 219.53193631913538 0.5 L 344.56387263827077 0.5 L 344.56387263827077 3.5 L 351.56387263827077 0 L 344.56387263827077 -3.5 L 344.56387263827077 -0.5 L 219.53193631913538 -0.5 Z"/><text text-anchor="middle" pointer-events="none" font-size="8px" fill="#000000" x="188.53193631913538" y="3" font-family="sans-serif">故障发生的设备</text></g><g class="relationship" transform="translate(200.16383377057318 -55.938576585538456) rotate(393.1976088500916)"><path class="outline" fill="#A5ABB6" stroke="none" d="M 32.5 0.5 L 107.23031025049266 0.5 L 107.23031025049266 -0.5 L 32.5 -0.5 Z M 169.23031025049266 0.5 L 243.96062050098533 0.5 L 243.96062050098533 3.5 L 250.96062050098533 0 L 243.96062050098533 -3.5 L 243.96062050098533 -0.5 L 169.23031025049266 -0.5 Z"/><text text-anchor="middle" pointer-events="none" font-size="8px" fill="#000000" x="138.23031025049266" y="3" font-family="sans-serif">故障发生的部位</text></g><g class="relationship" transform="translate(200.16383377057318 -55.938576585538456) rotate(410.21846701278724)"><path class="outline" fill="#A5ABB6" stroke="none" d="M 32.5 0.5 L 64.79646887614179 0.5 L 64.79646887614179 -0.5 L 32.5 -0.5 Z M 118.79646887614179 0.5 L 151.09293775228358 0.5 L 151.09293775228358 3.5 L 158.09293775228358 0 L 151.09293775228358 -3.5 L 151.09293775228358 -0.5 L 118.79646887614179 -0.5 Z"/><text text-anchor="middle" pointer-events="none" font-size="8px" fill="#000000" x="91.79646887614179" y="3" font-family="sans-serif">故障失效原因</text></g><g class="relationship" transform="translate(224.97246429105817 225.756505178539) rotate(303.22398050119745)"><path class="outline" fill="#A5ABB6" stroke="none" d="M 32.5 0.5 L 57.52024353353825 0.5 L 57.52024353353825 -0.5 L 32.5 -0.5 Z M 111.52024353353825 0.5 L 136.5404870670765 0.5 L 136.5404870670765 3.5 L 143.5404870670765 0 L 136.5404870670765 -3.5 L 136.5404870670765 -0.5 L 111.52024353353825 -0.5 Z"/><text text-anchor="middle" pointer-events="none" font-size="8px" fill="#000000" x="84.52024353353825" y="3" font-family="sans-serif">故障失效原因</text></g><g class="relationship" transform="translate(224.97246429105817 225.756505178539) rotate(327.6403687013169)"><path class="outline" fill="#A5ABB6" stroke="none" d="M 32.5 0.5 L 91.252128340013 0.5 L 91.252128340013 -0.5 L 32.5 -0.5 Z M 153.252128340013 0.5 L 212.004256680026 0.5 L 212.004256680026 3.5 L 219.004256680026 0 L 212.004256680026 -3.5 L 212.004256680026 -0.5 L 153.252128340013 -0.5 Z"/><text text-anchor="middle" pointer-events="none" font-size="8px" fill="#000000" x="122.252128340013" y="3" font-family="sans-serif">故障发生的部位</text></g><g class="relationship" transform="translate(-71.61060961876879 225.55710972893226) rotate(491.6331159065321)"><path class="outline" fill="#A5ABB6" stroke="none" d="M 32.5 0.5 L 43.45967180524357 0.5 L 43.45967180524357 -0.5 L 32.5 -0.5 Z M 97.45967180524357 0.5 L 108.41934361048715 0.5 L 108.41934361048715 3.5 L 115.41934361048715 0 L 108.41934361048715 -3.5 L 108.41934361048715 -0.5 L 97.45967180524357 -0.5 Z"/><text text-anchor="middle" pointer-events="none" font-size="8px" fill="#000000" x="70.45967180524357" y="3" transform="rotate(180 70.45967180524357 0)" font-family="sans-serif">故障失效原因</text></g></g><g class="layer nodes"><g class="node" transform="translate(76.14030618935122,85.38651107682638)"><circle class="outline" cx="0" cy="0" r="40" fill="#F79767" stroke="#f36924" stroke-width="2px"/><text text-anchor="middle" pointer-events="none" font-family="sans-serif" dy="2.5" font-size="40" fill="#FFFFFF"/><text text-anchor="middle" pointer-events="none" x="0" y="5" font-size="10px" fill="#FFFFFF" font-family="sans-serif"> 短路/接地</text></g><g class="node" transform="translate(224.97246429105817,225.756505178539)"><circle class="outline" cx="0" cy="0" r="32.5" fill="#604A0E" stroke="#423204" stroke-width="2px"/><text text-anchor="middle" pointer-events="none" font-family="sans-serif" dy="2.03125" font-size="32.5" fill="#FFFFFF"/><text text-anchor="middle" pointer-events="none" x="0" y="5" font-size="10px" fill="#FFFFFF" font-family="sans-serif"> 辊马达故障</text></g><g class="node" transform="translate(200.16383377057318,-55.938576585538456)"><circle class="outline" cx="0" cy="0" r="32.5" fill="#604A0E" stroke="#423204" stroke-width="2px"/><text text-anchor="middle" pointer-events="none" font-family="sans-serif" dy="2.03125" font-size="32.5" fill="#FFFFFF"/><text text-anchor="middle" pointer-events="none" x="0" y="5" font-size="10px" fill="#FFFFFF" font-family="sans-serif"> 辊道电缆故障</text></g><g class="node" transform="translate(-76.29150611521499,-57.61841319420019)"><circle class="outline" cx="0" cy="0" r="32.5" fill="#604A0E" stroke="#423204" stroke-width="2px"/><text text-anchor="middle" pointer-events="none" font-family="sans-serif" dy="2.03125" font-size="32.5" fill="#FFFFFF"/><text text-anchor="middle" pointer-events="none" x="0" y="5" font-size="10px" fill="#FFFFFF" font-family="sans-serif"> 马达故障</text></g><g class="node" transform="translate(-71.61060961876879,225.55710972893226)"><circle class="outline" cx="0" cy="0" r="32.5" fill="#604A0E" stroke="#423204" stroke-width="2px"/><text text-anchor="middle" pointer-events="none" font-family="sans-serif" dy="2.03125" font-size="32.5" fill="#FFFFFF"/><text text-anchor="middle" pointer-events="none" x="0" y="5" font-size="10px" fill="#FFFFFF" font-family="sans-serif"> 油库跳泵</text></g><g class="node" transform="translate(66.21185197604218,-124.87878919736018)"><circle class="outline" cx="0" cy="0" r="25" fill="#569480" stroke="#447666" stroke-width="2px"/><text text-anchor="middle" pointer-events="none" font-family="sans-serif" dy="1.5625" font-size="25" fill="#FFFFFF"/><text text-anchor="middle" pointer-events="none" x="0" y="5" font-size="10px" fill="#FFFFFF" font-family="sans-serif"> 交流鼠笼…</text></g><g class="node" transform="translate(-219.30235846857036,83.44460845184985)"><circle class="outline" cx="0" cy="0" r="25" fill="#C990C0" stroke="#b261a5" stroke-width="2px"/><text text-anchor="middle" pointer-events="none" font-family="sans-serif" dy="1.5625" font-size="25" fill="#FFFFFF"/><text text-anchor="middle" pointer-events="none" x="0" y="5" font-size="10px" fill="#FFFFFF" font-family="sans-serif"> 电缆/接线</text></g><g class="node" transform="translate(-213.1001255224949,-150.50930355022757)"><circle class="outline" cx="0" cy="0" r="25" fill="#57C7E3" stroke="#23b3d7" stroke-width="2px"/><text text-anchor="middle" pointer-events="none" font-family="sans-serif" dy="1.5625" font-size="25" fill="#2A2C34"/><text text-anchor="middle" pointer-events="none" x="0" y="5" font-size="10px" fill="#2A2C34" font-family="sans-serif"> 环境因素</text></g><g class="node" transform="translate(431.0841388929838,95.1576733661451)"><circle class="outline" cx="0" cy="0" r="25" fill="#C990C0" stroke="#b261a5" stroke-width="2px"/><text text-anchor="middle" pointer-events="none" font-family="sans-serif" dy="1.5625" font-size="25" fill="#FFFFFF"/><text text-anchor="middle" pointer-events="none" x="0" y="5" font-size="10px" fill="#FFFFFF" font-family="sans-serif"> 定子</text></g><g class="node" transform="translate(317.3180545480518,84.76647808124807)"><circle class="outline" cx="0" cy="0" r="25" fill="#57C7E3" stroke="#23b3d7" stroke-width="2px"/><text text-anchor="middle" pointer-events="none" font-family="sans-serif" dy="1.5625" font-size="25" fill="#2A2C34"/><text text-anchor="middle" pointer-events="none" x="0" y="5" font-size="10px" fill="#2A2C34" font-family="sans-serif"> 部件劣化</text></g><g class="node" transform="translate(-164.8993681713364,330.50852509681)"><circle class="outline" cx="0" cy="0" r="25" fill="#57C7E3" stroke="#23b3d7" stroke-width="2px"/><text text-anchor="middle" pointer-events="none" font-family="sans-serif" dy="1.5625" font-size="25" fill="#2A2C34"/><text text-anchor="middle" pointer-events="none" x="0" y="5" font-size="10px" fill="#2A2C34" font-family="sans-serif"> 紧固/接…</text></g></g></svg>