<svg xmlns="http://www.w3.org/2000/svg" width="817.3798828125" height="728.34521484375" viewBox="-264.03460693359375 -283.5810241699219 817.3798828125 728.34521484375"><title>Neo4j Graph Visualization</title><desc>Created using Neo4j (http://www.neo4j.com/)</desc><g class="layer relationships"><g class="relationship" transform="translate(283.6710083365312 272.728050469412) rotate(223.21604817692412)"><path class="outline" fill="#A5ABB6" stroke="none" d="M 32.5 0.5 L 91.49792169201352 0.5 L 91.49792169201352 -0.5 L 32.5 -0.5 Z M 145.4979216920135 0.5 L 204.49584338402704 0.5 L 204.49584338402704 3.5 L 211.49584338402704 0 L 204.49584338402704 -3.5 L 204.49584338402704 -0.5 L 145.4979216920135 -0.5 Z"/><text text-anchor="middle" pointer-events="none" font-size="8px" fill="#000000" x="118.49792169201352" y="3" transform="rotate(180 118.49792169201352 0)" font-family="sans-serif">故障失效原因</text></g><g class="relationship" transform="translate(258.0380219320515 -74.73307312646043) rotate(491.9740671042264)"><path class="outline" fill="#A5ABB6" stroke="none" d="M 32.5 0.5 L 83.61239310624799 0.5 L 83.61239310624799 -0.5 L 32.5 -0.5 Z M 137.612393106248 0.5 L 188.72478621249599 0.5 L 188.72478621249599 3.5 L 195.72478621249599 0 L 188.72478621249599 -3.5 L 188.72478621249599 -0.5 L 137.612393106248 -0.5 Z"/><text text-anchor="middle" pointer-events="none" font-size="8px" fill="#000000" x="110.61239310624799" y="3" transform="rotate(180 110.61239310624799 0)" font-family="sans-serif">故障失效原因</text></g><g class="relationship" transform="translate(-70.61770759005242 266.02464635861315) rotate(315.9356275868266)"><path class="outline" fill="#A5ABB6" stroke="none" d="M 32.5 0.5 L 84.74119664334422 0.5 L 84.74119664334422 -0.5 L 32.5 -0.5 Z M 138.7411966433442 0.5 L 190.98239328668845 0.5 L 190.98239328668845 3.5 L 197.98239328668845 0 L 190.98239328668845 -3.5 L 190.98239328668845 -0.5 L 138.7411966433442 -0.5 Z"/><text text-anchor="middle" pointer-events="none" font-size="8px" fill="#000000" x="111.74119664334422" y="3" font-family="sans-serif">故障失效原因</text></g><g class="relationship" transform="translate(-68.39180778891473 -75.8490858112481) rotate(406.2592119284514)"><path class="outline" fill="#A5ABB6" stroke="none" d="M 32.5 0.5 L 87.80613240771771 0.5 L 87.80613240771771 -0.5 L 32.5 -0.5 Z M 141.8061324077177 0.5 L 197.11226481543542 0.5 L 197.11226481543542 3.5 L 204.11226481543542 0 L 197.11226481543542 -3.5 L 197.11226481543542 -0.5 L 141.8061324077177 -0.5 Z"/><text text-anchor="middle" pointer-events="none" font-size="8px" fill="#000000" x="114.80613240771771" y="3" font-family="sans-serif">故障失效原因</text></g><g class="relationship" transform="translate(-68.39180778891473 -75.8490858112481) rotate(226.44540142679807)"><path class="outline" fill="#A5ABB6" stroke="none" d="M 32.5 0.5 L 61.31716571726996 0.5 L 61.31716571726996 -0.5 L 32.5 -0.5 Z M 123.31716571726996 0.5 L 152.13433143453992 0.5 L 152.13433143453992 3.5 L 159.13433143453992 0 L 152.13433143453992 -3.5 L 152.13433143453992 -0.5 L 123.31716571726996 -0.5 Z"/><text text-anchor="middle" pointer-events="none" font-size="8px" fill="#000000" x="92.31716571726996" y="3" transform="rotate(180 92.31716571726996 0)" font-family="sans-serif">故障发生的部位</text></g><g class="relationship" transform="translate(-68.39180778891473 -75.8490858112481) rotate(533.1240886781848)"><path class="outline" fill="#A5ABB6" stroke="none" d="M 32.5 0.5 L 53.175019280612574 0.5 L 53.175019280612574 -0.5 L 32.5 -0.5 Z M 115.17501928061257 0.5 L 135.85003856122515 0.5 L 135.85003856122515 3.5 L 142.85003856122515 0 L 135.85003856122515 -3.5 L 135.85003856122515 -0.5 L 115.17501928061257 -0.5 Z"/><text text-anchor="middle" pointer-events="none" font-size="8px" fill="#000000" x="84.17501928061257" y="3" transform="rotate(180 84.17501928061257 0)" font-family="sans-serif">故障发生的设备</text></g><g class="relationship" transform="translate(-68.39180778891473 -75.8490858112481) rotate(292.2556473010274)"><path class="outline" fill="#A5ABB6" stroke="none" d="M 32.5 0.5 L 69.80933450197513 0.5 L 69.80933450197513 -0.5 L 32.5 -0.5 Z M 123.80933450197513 0.5 L 161.11866900395026 0.5 L 161.11866900395026 3.5 L 168.11866900395026 0 L 161.11866900395026 -3.5 L 161.11866900395026 -0.5 L 123.80933450197513 -0.5 Z"/><text text-anchor="middle" pointer-events="none" font-size="8px" fill="#000000" x="96.80933450197513" y="3" font-family="sans-serif">故障失效形式</text></g><g class="relationship" transform="translate(-70.61770759005242 266.02464635861315) rotate(423.85896329573114)"><path class="outline" fill="#A5ABB6" stroke="none" d="M 32.5 0.5 L 51.25827633350252 0.5 L 51.25827633350252 -0.5 L 32.5 -0.5 Z M 113.25827633350252 0.5 L 132.01655266700504 0.5 L 132.01655266700504 3.5 L 139.01655266700504 0 L 132.01655266700504 -3.5 L 132.01655266700504 -0.5 L 113.25827633350252 -0.5 Z"/><text text-anchor="middle" pointer-events="none" font-size="8px" fill="#000000" x="82.25827633350252" y="3" font-family="sans-serif">故障发生的设备</text></g><g class="relationship" transform="translate(-70.61770759005242 266.02464635861315) rotate(467.6493358198494)"><path class="outline" fill="#A5ABB6" stroke="none" d="M 32.5 0.5 L 47.81796854497247 0.5 L 47.81796854497247 -0.5 L 32.5 -0.5 Z M 109.81796854497247 0.5 L 125.13593708994495 0.5 L 125.13593708994495 3.5 L 132.13593708994495 0 L 125.13593708994495 -3.5 L 125.13593708994495 -0.5 L 109.81796854497247 -0.5 Z"/><text text-anchor="middle" pointer-events="none" font-size="8px" fill="#000000" x="78.81796854497247" y="3" transform="rotate(180 78.81796854497247 0)" font-family="sans-serif">故障发生的部位</text></g><g class="relationship" transform="translate(-70.61770759005242 266.02464635861315) rotate(518.2795478256762)"><path class="outline" fill="#A5ABB6" stroke="none" d="M 32.5 0.5 L 52.0917071664863 0.5 L 52.0917071664863 -0.5 L 32.5 -0.5 Z M 106.0917071664863 0.5 L 125.6834143329726 0.5 L 125.6834143329726 3.5 L 132.6834143329726 0 L 125.6834143329726 -3.5 L 125.6834143329726 -0.5 L 106.0917071664863 -0.5 Z"/><text text-anchor="middle" pointer-events="none" font-size="8px" fill="#000000" x="79.0917071664863" y="3" transform="rotate(180 79.0917071664863 0)" font-family="sans-serif">故障失效形式</text></g><g class="relationship" transform="translate(258.0380219320515 -74.73307312646043) rotate(392.83727087095247)"><path class="outline" fill="#A5ABB6" stroke="none" d="M 32.5 0.5 L 127.72583022088372 0.5 L 127.72583022088372 -0.5 L 32.5 -0.5 Z M 189.72583022088372 0.5 L 284.95166044176744 0.5 L 284.95166044176744 3.5 L 291.95166044176744 0 L 284.95166044176744 -3.5 L 284.95166044176744 -0.5 L 189.72583022088372 -0.5 Z"/><text text-anchor="middle" pointer-events="none" font-size="8px" fill="#000000" x="158.72583022088372" y="3" font-family="sans-serif">故障发生的设备</text></g><g class="relationship" transform="translate(258.0380219320515 -74.73307312646043) rotate(410.1887955096878)"><path class="outline" fill="#A5ABB6" stroke="none" d="M 32.5 0.5 L 78.85661363081093 0.5 L 78.85661363081093 -0.5 L 32.5 -0.5 Z M 140.85661363081093 0.5 L 187.21322726162185 0.5 L 187.21322726162185 3.5 L 194.21322726162185 0 L 187.21322726162185 -3.5 L 187.21322726162185 -0.5 L 140.85661363081093 -0.5 Z"/><text text-anchor="middle" pointer-events="none" font-size="8px" fill="#000000" x="109.85661363081093" y="3" font-family="sans-serif">故障发生的部位</text></g><g class="relationship" transform="translate(258.0380219320515 -74.73307312646043) rotate(433.2297788779658)"><path class="outline" fill="#A5ABB6" stroke="none" d="M 32.5 0.5 L 59.26227823349397 0.5 L 59.26227823349397 -0.5 L 32.5 -0.5 Z M 113.26227823349397 0.5 L 140.02455646698795 0.5 L 140.02455646698795 3.5 L 147.02455646698795 0 L 140.02455646698795 -3.5 L 140.02455646698795 -0.5 L 113.26227823349397 -0.5 Z"/><text text-anchor="middle" pointer-events="none" font-size="8px" fill="#000000" x="86.26227823349397" y="3" font-family="sans-serif">故障失效形式</text></g><g class="relationship" transform="translate(283.6710083365312 272.728050469412) rotate(277.48216016232345)"><path class="outline" fill="#A5ABB6" stroke="none" d="M 32.5 0.5 L 65.41113121824505 0.5 L 65.41113121824505 -0.5 L 32.5 -0.5 Z M 119.41113121824505 0.5 L 152.3222624364901 0.5 L 152.3222624364901 3.5 L 159.3222624364901 0 L 152.3222624364901 -3.5 L 152.3222624364901 -0.5 L 119.41113121824505 -0.5 Z"/><text text-anchor="middle" pointer-events="none" font-size="8px" fill="#000000" x="92.41113121824505" y="3" font-family="sans-serif">故障失效形式</text></g><g class="relationship" transform="translate(283.6710083365312 272.728050469412) rotate(302.6453932045444)"><path class="outline" fill="#A5ABB6" stroke="none" d="M 32.5 0.5 L 75.58330116268147 0.5 L 75.58330116268147 -0.5 L 32.5 -0.5 Z M 137.58330116268147 0.5 L 180.66660232536293 0.5 L 180.66660232536293 3.5 L 187.66660232536293 0 L 180.66660232536293 -3.5 L 180.66660232536293 -0.5 L 137.58330116268147 -0.5 Z"/><text text-anchor="middle" pointer-events="none" font-size="8px" fill="#000000" x="106.58330116268147" y="3" font-family="sans-serif">故障发生的部位</text></g><g class="relationship" transform="translate(283.6710083365312 272.728050469412) rotate(323.8860371348121)"><path class="outline" fill="#A5ABB6" stroke="none" d="M 32.5 0.5 L 118.21042600166064 0.5 L 118.21042600166064 -0.5 L 32.5 -0.5 Z M 180.21042600166064 0.5 L 265.9208520033213 0.5 L 265.9208520033213 3.5 L 272.9208520033213 0 L 265.9208520033213 -3.5 L 265.9208520033213 -0.5 L 180.21042600166064 -0.5 Z"/><text text-anchor="middle" pointer-events="none" font-size="8px" fill="#000000" x="149.21042600166064" y="3" font-family="sans-serif">故障发生的设备</text></g></g><g class="layer nodes"><g class="node" transform="translate(100.3866568855355,100.51595521292036)"><circle class="outline" cx="0" cy="0" r="40" fill="#57C7E3" stroke="#23b3d7" stroke-width="2px"/><text text-anchor="middle" pointer-events="none" font-family="sans-serif" dy="2.5" font-size="40" fill="#2A2C34"/><text text-anchor="middle" pointer-events="none" x="0" y="5" font-size="10px" fill="#2A2C34" font-family="sans-serif"> 部件劣化</text></g><g class="node" transform="translate(283.6710083365312,272.728050469412)"><circle class="outline" cx="0" cy="0" r="32.5" fill="#604A0E" stroke="#423204" stroke-width="2px"/><text text-anchor="middle" pointer-events="none" font-family="sans-serif" dy="2.03125" font-size="32.5" fill="#FFFFFF"/><text text-anchor="middle" pointer-events="none" x="0" y="5" font-size="10px" fill="#FFFFFF" font-family="sans-serif"> 辊马达故障</text></g><g class="node" transform="translate(258.0380219320515,-74.73307312646043)"><circle class="outline" cx="0" cy="0" r="32.5" fill="#604A0E" stroke="#423204" stroke-width="2px"/><text text-anchor="middle" pointer-events="none" font-family="sans-serif" dy="2.03125" font-size="32.5" fill="#FFFFFF"/><text text-anchor="middle" pointer-events="none" x="0" y="5" font-size="10px" fill="#FFFFFF" font-family="sans-serif"> 辊道电缆故障</text></g><g class="node" transform="translate(-70.61770759005242,266.02464635861315)"><circle class="outline" cx="0" cy="0" r="32.5" fill="#604A0E" stroke="#423204" stroke-width="2px"/><text text-anchor="middle" pointer-events="none" font-family="sans-serif" dy="2.03125" font-size="32.5" fill="#FFFFFF"/><text text-anchor="middle" pointer-events="none" x="0" y="5" font-size="10px" fill="#FFFFFF" font-family="sans-serif"> 编码器故障</text></g><g class="node" transform="translate(-68.39180778891473,-75.8490858112481)"><circle class="outline" cx="0" cy="0" r="32.5" fill="#604A0E" stroke="#423204" stroke-width="2px"/><text text-anchor="middle" pointer-events="none" font-family="sans-serif" dy="2.03125" font-size="32.5" fill="#FFFFFF"/><text text-anchor="middle" pointer-events="none" x="0" y="5" font-size="10px" fill="#FFFFFF" font-family="sans-serif"> 导板故障</text></g><g class="node" transform="translate(-195.26873847903545,-209.2945670816879)"><circle class="outline" cx="0" cy="0" r="25" fill="#C990C0" stroke="#b261a5" stroke-width="2px"/><text text-anchor="middle" pointer-events="none" font-family="sans-serif" dy="1.5625" font-size="25" fill="#FFFFFF"/><text text-anchor="middle" pointer-events="none" x="0" y="5" font-size="10px" fill="#FFFFFF" font-family="sans-serif"> 电缆/接线</text></g><g class="node" transform="translate(-235.03462908044025,-55.754172101419584)"><circle class="outline" cx="0" cy="0" r="25" fill="#569480" stroke="#447666" stroke-width="2px"/><text text-anchor="middle" pointer-events="none" font-family="sans-serif" dy="1.5625" font-size="25" fill="#FFFFFF"/><text text-anchor="middle" pointer-events="none" x="0" y="5" font-size="10px" fill="#FFFFFF" font-family="sans-serif"> 检测元件</text></g><g class="node" transform="translate(4.749926104178401,-254.58102778293164)"><circle class="outline" cx="0" cy="0" r="25" fill="#F79767" stroke="#f36924" stroke-width="2px"/><text text-anchor="middle" pointer-events="none" font-family="sans-serif" dy="1.5625" font-size="25" fill="#FFFFFF"/><text text-anchor="middle" pointer-events="none" x="0" y="5" font-size="10px" fill="#FFFFFF" font-family="sans-serif"> 主机动作…</text></g><g class="node" transform="translate(1.6450737789786913,413.26431485042974)"><circle class="outline" cx="0" cy="0" r="25" fill="#569480" stroke="#447666" stroke-width="2px"/><text text-anchor="middle" pointer-events="none" font-family="sans-serif" dy="1.5625" font-size="25" fill="#FFFFFF"/><text text-anchor="middle" pointer-events="none" x="0" y="5" font-size="10px" fill="#FFFFFF" font-family="sans-serif"> 变频器(…</text></g><g class="node" transform="translate(-118.25983796725168,415.7641873564975)"><circle class="outline" cx="0" cy="0" r="25" fill="#C990C0" stroke="#b261a5" stroke-width="2px"/><text text-anchor="middle" pointer-events="none" font-family="sans-serif" dy="1.5625" font-size="25" fill="#FFFFFF"/><text text-anchor="middle" pointer-events="none" x="0" y="5" font-size="10px" fill="#FFFFFF" font-family="sans-serif"> 编码器</text></g><g class="node" transform="translate(-217.1056828190391,324.37987122336455)"><circle class="outline" cx="0" cy="0" r="25" fill="#F79767" stroke="#f36924" stroke-width="2px"/><text text-anchor="middle" pointer-events="none" font-family="sans-serif" dy="1.5625" font-size="25" fill="#FFFFFF"/><text text-anchor="middle" pointer-events="none" x="0" y="5" font-size="10px" fill="#FFFFFF" font-family="sans-serif"> 器件损坏</text></g><g class="node" transform="translate(524.3452585594773,97.1355126495844)"><circle class="outline" cx="0" cy="0" r="25" fill="#569480" stroke="#447666" stroke-width="2px"/><text text-anchor="middle" pointer-events="none" font-family="sans-serif" dy="1.5625" font-size="25" fill="#FFFFFF"/><text text-anchor="middle" pointer-events="none" x="0" y="5" font-size="10px" fill="#FFFFFF" font-family="sans-serif"> 交流鼠笼…</text></g><g class="node" transform="translate(398.39146728045796,93.65739389969681)"><circle class="outline" cx="0" cy="0" r="25" fill="#C990C0" stroke="#b261a5" stroke-width="2px"/><text text-anchor="middle" pointer-events="none" font-family="sans-serif" dy="1.5625" font-size="25" fill="#FFFFFF"/><text text-anchor="middle" pointer-events="none" x="0" y="5" font-size="10px" fill="#FFFFFF" font-family="sans-serif"> 定子</text></g><g class="node" transform="translate(307.6729899194711,89.97520833064102)"><circle class="outline" cx="0" cy="0" r="25" fill="#F79767" stroke="#f36924" stroke-width="2px"/><text text-anchor="middle" pointer-events="none" font-family="sans-serif" dy="1.5625" font-size="25" fill="#FFFFFF"/><text text-anchor="middle" pointer-events="none" x="0" y="5" font-size="10px" fill="#FFFFFF" font-family="sans-serif"> 短路/接地</text></g></g></svg>