<svg xmlns="http://www.w3.org/2000/svg" width="701.5252685546875" height="719.8488159179688" viewBox="-136.86602783203125 -187.59320068359375 701.5252685546875 719.8488159179688"><title>Neo4j Graph Visualization</title><desc>Created using Neo4j (http://www.neo4j.com/)</desc><g class="layer relationships"><g class="relationship" transform="translate(6.019992344919103 98.609667311722) rotate(402.41241989398753)"><path class="outline" fill="#A5ABB6" stroke="none" d="M 32.5 0.5 L 54.06954155100276 0.5 L 54.06954155100276 -0.5 L 32.5 -0.5 Z M 116.06954155100276 0.5 L 137.63908310200551 0.5 L 137.63908310200551 3.5 L 144.63908310200551 0 L 137.63908310200551 -3.5 L 137.63908310200551 -0.5 L 116.06954155100276 -0.5 Z"/><text text-anchor="middle" pointer-events="none" font-size="8px" fill="#000000" x="85.06954155100276" y="3" font-family="sans-serif">故障发生的设备</text></g><g class="relationship" transform="translate(298.59407544722785 111.9712822642033) rotate(504.56906225844955)"><path class="outline" fill="#A5ABB6" stroke="none" d="M 32.5 0.5 L 57.63273382008637 0.5 L 57.63273382008637 -0.5 L 32.5 -0.5 Z M 119.63273382008637 0.5 L 144.76546764017274 0.5 L 144.76546764017274 3.5 L 151.76546764017274 0 L 144.76546764017274 -3.5 L 144.76546764017274 -0.5 L 119.63273382008637 -0.5 Z"/><text text-anchor="middle" pointer-events="none" font-size="8px" fill="#000000" x="88.63273382008637" y="3" transform="rotate(180 88.63273382008637 0)" font-family="sans-serif">故障发生的设备</text></g><g class="relationship" transform="translate(8.150336398698755 365.3421786735678) rotate(313.3399919114905)"><path class="outline" fill="#A5ABB6" stroke="none" d="M 32.5 0.5 L 59.50991980591674 0.5 L 59.50991980591674 -0.5 L 32.5 -0.5 Z M 121.50991980591674 0.5 L 148.51983961183348 0.5 L 148.51983961183348 3.5 L 155.51983961183348 0 L 148.51983961183348 -3.5 L 148.51983961183348 -0.5 L 121.50991980591674 -0.5 Z"/><text text-anchor="middle" pointer-events="none" font-size="8px" fill="#000000" x="90.50991980591674" y="3" font-family="sans-serif">故障发生的设备</text></g><g class="relationship" transform="translate(287.3197967337037 363.15464399050546) rotate(224.00167278434742)"><path class="outline" fill="#A5ABB6" stroke="none" d="M 32.5 0.5 L 62.525159663596824 0.5 L 62.525159663596824 -0.5 L 32.5 -0.5 Z M 124.52515966359682 0.5 L 154.55031932719365 0.5 L 154.55031932719365 3.5 L 161.55031932719365 0 L 154.55031932719365 -3.5 L 154.55031932719365 -0.5 L 124.52515966359682 -0.5 Z"/><text text-anchor="middle" pointer-events="none" font-size="8px" fill="#000000" x="93.52515966359682" y="3" transform="rotate(180 93.52515966359682 0)" font-family="sans-serif">故障发生的设备</text></g><g class="relationship" transform="translate(8.150336398698755 365.3421786735678) rotate(327.1175248168693)"><path class="outline" fill="#A5ABB6" stroke="none" d="M 32.5 0.5 L 287.3234047955695 0.5 L 287.3234047955695 -0.5 L 32.5 -0.5 Z M 341.3234047955695 0.5 L 596.146809591139 0.5 L 596.146809591139 3.5 L 603.146809591139 0 L 596.146809591139 -3.5 L 596.146809591139 -0.5 L 341.3234047955695 -0.5 Z"/><text text-anchor="middle" pointer-events="none" font-size="8px" fill="#000000" x="314.3234047955695" y="3" font-family="sans-serif">故障失效形式</text></g><g class="relationship" transform="translate(8.150336398698755 365.3421786735678) rotate(401.0849324850551)"><path class="outline" fill="#A5ABB6" stroke="none" d="M 32.5 0.5 L 74.1786763066583 0.5 L 74.1786763066583 -0.5 L 32.5 -0.5 Z M 136.1786763066583 0.5 L 177.8573526133166 0.5 L 177.8573526133166 3.5 L 184.8573526133166 0 L 177.8573526133166 -3.5 L 177.8573526133166 -0.5 L 136.1786763066583 -0.5 Z"/><text text-anchor="middle" pointer-events="none" font-size="8px" fill="#000000" x="105.1786763066583" y="3" font-family="sans-serif">故障发生的部位</text></g><g class="relationship" transform="translate(8.150336398698755 365.3421786735678) rotate(507.65818394998513)"><path class="outline" fill="#A5ABB6" stroke="none" d="M 32.5 0.5 L 41.90917233137942 0.5 L 41.90917233137942 -0.5 L 32.5 -0.5 Z M 95.90917233137942 0.5 L 105.31834466275885 0.5 L 105.31834466275885 3.5 L 112.31834466275885 0 L 105.31834466275885 -3.5 L 105.31834466275885 -0.5 L 95.90917233137942 -0.5 Z"/><text text-anchor="middle" pointer-events="none" font-size="8px" fill="#000000" x="68.90917233137942" y="3" transform="rotate(180 68.90917233137942 0)" font-family="sans-serif">故障失效原因</text></g><g class="relationship" transform="translate(6.019992344919103 98.609667311722) rotate(352.0144790403092)"><path class="outline" fill="#A5ABB6" stroke="none" d="M 32.5 0.5 L 240.66265406990811 0.5 L 240.66265406990811 -0.5 L 32.5 -0.5 Z M 294.6626540699081 0.5 L 502.82530813981623 0.5 L 502.82530813981623 3.5 L 509.82530813981623 0 L 502.82530813981623 -3.5 L 502.82530813981623 -0.5 L 294.6626540699081 -0.5 Z"/><text text-anchor="middle" pointer-events="none" font-size="8px" fill="#000000" x="267.6626540699081" y="3" font-family="sans-serif">故障失效形式</text></g><g class="relationship" transform="translate(298.59407544722785 111.9712822642033) rotate(339.7068003764265)"><path class="outline" fill="#A5ABB6" stroke="none" d="M 32.5 0.5 L 99.62675954080346 0.5 L 99.62675954080346 -0.5 L 32.5 -0.5 Z M 153.62675954080345 0.5 L 220.75351908160692 0.5 L 220.75351908160692 3.5 L 227.75351908160692 0 L 220.75351908160692 -3.5 L 220.75351908160692 -0.5 L 153.62675954080345 -0.5 Z"/><text text-anchor="middle" pointer-events="none" font-size="8px" fill="#000000" x="126.62675954080346" y="3" font-family="sans-serif">故障失效形式</text></g><g class="relationship" transform="translate(287.3197967337037 363.15464399050546) rotate(306.237725125432)"><path class="outline" fill="#A5ABB6" stroke="none" d="M 32.5 0.5 L 183.3023824613776 0.5 L 183.3023824613776 -0.5 L 32.5 -0.5 Z M 237.3023824613776 0.5 L 388.1047649227552 0.5 L 388.1047649227552 3.5 L 395.1047649227552 0 L 388.1047649227552 -3.5 L 388.1047649227552 -0.5 L 237.3023824613776 -0.5 Z"/><text text-anchor="middle" pointer-events="none" font-size="8px" fill="#000000" x="210.3023824613776" y="3" font-family="sans-serif">故障失效形式</text></g><g class="relationship" transform="translate(287.3197967337037 363.15464399050546) rotate(490.81416442699543)"><path class="outline" fill="#A5ABB6" stroke="none" d="M 32.5 0.5 L 61.807327198588254 0.5 L 61.807327198588254 -0.5 L 32.5 -0.5 Z M 123.80732719858825 0.5 L 153.1146543971765 0.5 L 153.1146543971765 3.5 L 160.1146543971765 0 L 153.1146543971765 -3.5 L 153.1146543971765 -0.5 L 123.80732719858825 -0.5 Z"/><text text-anchor="middle" pointer-events="none" font-size="8px" fill="#000000" x="92.80732719858825" y="3" transform="rotate(180 92.80732719858825 0)" font-family="sans-serif">故障发生的部位</text></g><g class="relationship" transform="translate(6.019992344919103 98.609667311722) rotate(310.6573594300272)"><path class="outline" fill="#A5ABB6" stroke="none" d="M 32.5 0.5 L 50.52584349827033 0.5 L 50.52584349827033 -0.5 L 32.5 -0.5 Z M 112.52584349827033 0.5 L 130.55168699654067 0.5 L 130.55168699654067 3.5 L 137.55168699654067 0 L 130.55168699654067 -3.5 L 130.55168699654067 -0.5 L 112.52584349827033 -0.5 Z"/><text text-anchor="middle" pointer-events="none" font-size="8px" fill="#000000" x="81.52584349827033" y="3" font-family="sans-serif">故障发生的部位</text></g><g class="relationship" transform="translate(6.019992344919103 98.609667311722) rotate(287.41223060687264)"><path class="outline" fill="#A5ABB6" stroke="none" d="M 32.5 0.5 L 108.0274071032953 0.5 L 108.0274071032953 -0.5 L 32.5 -0.5 Z M 162.0274071032953 0.5 L 237.5548142065906 0.5 L 237.5548142065906 3.5 L 244.5548142065906 0 L 237.5548142065906 -3.5 L 237.5548142065906 -0.5 L 162.0274071032953 -0.5 Z"/><text text-anchor="middle" pointer-events="none" font-size="8px" fill="#000000" x="135.0274071032953" y="3" font-family="sans-serif">故障失效原因</text></g><g class="relationship" transform="translate(298.59407544722785 111.9712822642033) rotate(231.93127104242512)"><path class="outline" fill="#A5ABB6" stroke="none" d="M 32.5 0.5 L 145.08679166442303 0.5 L 145.08679166442303 -0.5 L 32.5 -0.5 Z M 199.08679166442303 0.5 L 311.67358332884606 0.5 L 311.67358332884606 3.5 L 318.67358332884606 0 L 311.67358332884606 -3.5 L 311.67358332884606 -0.5 L 199.08679166442303 -0.5 Z"/><text text-anchor="middle" pointer-events="none" font-size="8px" fill="#000000" x="172.08679166442303" y="3" transform="rotate(180 172.08679166442303 0)" font-family="sans-serif">故障失效原因</text></g><g class="relationship" transform="translate(298.59407544722785 111.9712822642033) rotate(216.21149667636143)"><path class="outline" fill="#A5ABB6" stroke="none" d="M 32.5 0.5 L 84.927034888409 0.5 L 84.927034888409 -0.5 L 32.5 -0.5 Z M 146.927034888409 0.5 L 199.354069776818 0.5 L 199.354069776818 3.5 L 206.354069776818 0 L 199.354069776818 -3.5 L 199.354069776818 -0.5 L 146.927034888409 -0.5 Z"/><text text-anchor="middle" pointer-events="none" font-size="8px" fill="#000000" x="115.927034888409" y="3" transform="rotate(180 115.927034888409 0)" font-family="sans-serif">故障发生的部位</text></g><g class="relationship" transform="translate(287.3197967337037 363.15464399050546) rotate(389.61453332524127)"><path class="outline" fill="#A5ABB6" stroke="none" d="M 32.5 0.5 L 62.52693946000788 0.5 L 62.52693946000788 -0.5 L 32.5 -0.5 Z M 116.52693946000788 0.5 L 146.55387892001576 0.5 L 146.55387892001576 3.5 L 153.55387892001576 0 L 146.55387892001576 -3.5 L 146.55387892001576 -0.5 L 116.52693946000788 -0.5 Z"/><text text-anchor="middle" pointer-events="none" font-size="8px" fill="#000000" x="89.52693946000788" y="3" font-family="sans-serif">故障失效原因</text></g></g><g class="layer nodes"><g class="node" transform="translate(142.34071796727486,223.14179479111465)"><circle class="outline" cx="0" cy="0" r="40" fill="#569480" stroke="#447666" stroke-width="2px"/><text text-anchor="middle" pointer-events="none" font-family="sans-serif" dy="2.5" font-size="40" fill="#FFFFFF"/><text text-anchor="middle" pointer-events="none" x="0" y="5" font-size="10px" fill="#FFFFFF" font-family="sans-serif"> 交流鼠笼式异步…</text></g><g class="node" transform="translate(6.019992344919103,98.609667311722)"><circle class="outline" cx="0" cy="0" r="32.5" fill="#604A0E" stroke="#423204" stroke-width="2px"/><text text-anchor="middle" pointer-events="none" font-family="sans-serif" dy="2.03125" font-size="32.5" fill="#FFFFFF"/><text text-anchor="middle" pointer-events="none" x="0" y="5" font-size="10px" fill="#FFFFFF" font-family="sans-serif"> 辊马达故障</text></g><g class="node" transform="translate(298.59407544722785,111.9712822642033)"><circle class="outline" cx="0" cy="0" r="32.5" fill="#604A0E" stroke="#423204" stroke-width="2px"/><text text-anchor="middle" pointer-events="none" font-family="sans-serif" dy="2.03125" font-size="32.5" fill="#FFFFFF"/><text text-anchor="middle" pointer-events="none" x="0" y="5" font-size="10px" fill="#FFFFFF" font-family="sans-serif"> 辊道电缆故障</text></g><g class="node" transform="translate(8.150336398698755,365.3421786735678)"><circle class="outline" cx="0" cy="0" r="32.5" fill="#604A0E" stroke="#423204" stroke-width="2px"/><text text-anchor="middle" pointer-events="none" font-family="sans-serif" dy="2.03125" font-size="32.5" fill="#FFFFFF"/><text text-anchor="middle" pointer-events="none" x="0" y="5" font-size="10px" fill="#FFFFFF" font-family="sans-serif"> 马达故障</text></g><g class="node" transform="translate(287.3197967337037,363.15464399050546)"><circle class="outline" cx="0" cy="0" r="32.5" fill="#604A0E" stroke="#423204" stroke-width="2px"/><text text-anchor="middle" pointer-events="none" font-family="sans-serif" dy="2.03125" font-size="32.5" fill="#FFFFFF"/><text text-anchor="middle" pointer-events="none" x="0" y="5" font-size="10px" fill="#FFFFFF" font-family="sans-serif"> 油库跳泵</text></g><g class="node" transform="translate(535.6592102490322,24.310211830751598)"><circle class="outline" cx="0" cy="0" r="25" fill="#F79767" stroke="#f36924" stroke-width="2px"/><text text-anchor="middle" pointer-events="none" font-family="sans-serif" dy="1.5625" font-size="25" fill="#FFFFFF"/><text text-anchor="middle" pointer-events="none" x="0" y="5" font-size="10px" fill="#FFFFFF" font-family="sans-serif"> 短路/接地</text></g><g class="node" transform="translate(166.32742856721222,503.25561514363585)"><circle class="outline" cx="0" cy="0" r="25" fill="#C990C0" stroke="#b261a5" stroke-width="2px"/><text text-anchor="middle" pointer-events="none" font-family="sans-serif" dy="1.5625" font-size="25" fill="#FFFFFF"/><text text-anchor="middle" pointer-events="none" x="0" y="5" font-size="10px" fill="#FFFFFF" font-family="sans-serif"> 电缆/接线</text></g><g class="node" transform="translate(-107.86603631984809,438.80325028398914)"><circle class="outline" cx="0" cy="0" r="25" fill="#57C7E3" stroke="#23b3d7" stroke-width="2px"/><text text-anchor="middle" pointer-events="none" font-family="sans-serif" dy="1.5625" font-size="25" fill="#2A2C34"/><text text-anchor="middle" pointer-events="none" x="0" y="5" font-size="10px" fill="#2A2C34" font-family="sans-serif"> 环境因素</text></g><g class="node" transform="translate(111.9279441263566,-24.705200789744325)"><circle class="outline" cx="0" cy="0" r="25" fill="#C990C0" stroke="#b261a5" stroke-width="2px"/><text text-anchor="middle" pointer-events="none" font-family="sans-serif" dy="1.5625" font-size="25" fill="#FFFFFF"/><text text-anchor="middle" pointer-events="none" x="0" y="5" font-size="10px" fill="#FFFFFF" font-family="sans-serif"> 定子</text></g><g class="node" transform="translate(86.68278302318336,-158.5931943790922)"><circle class="outline" cx="0" cy="0" r="25" fill="#57C7E3" stroke="#23b3d7" stroke-width="2px"/><text text-anchor="middle" pointer-events="none" font-family="sans-serif" dy="1.5625" font-size="25" fill="#2A2C34"/><text text-anchor="middle" pointer-events="none" x="0" y="5" font-size="10px" fill="#2A2C34" font-family="sans-serif"> 部件劣化</text></g><g class="node" transform="translate(442.54911299621875,451.3892576636878)"><circle class="outline" cx="0" cy="0" r="25" fill="#57C7E3" stroke="#23b3d7" stroke-width="2px"/><text text-anchor="middle" pointer-events="none" font-family="sans-serif" dy="1.5625" font-size="25" fill="#2A2C34"/><text text-anchor="middle" pointer-events="none" x="0" y="5" font-size="10px" fill="#2A2C34" font-family="sans-serif"> 紧固/接…</text></g></g></svg>