<svg xmlns="http://www.w3.org/2000/svg" width="802.64306640625" height="662.5469970703125" viewBox="-222.16653442382812 -202.8727264404297 802.64306640625 662.5469970703125"><title>Neo4j Graph Visualization</title><desc>Created using Neo4j (http://www.neo4j.com/)</desc><g class="layer relationships"><g class="relationship" transform="translate(375.0472442856941 264.3742456476282) rotate(375.89420404391177)"><path class="outline" fill="#A5ABB6" stroke="none" d="M 32.5 0.5 L 60.97126026249143 0.5 L 60.97126026249143 -0.5 L 32.5 -0.5 Z M 122.97126026249143 0.5 L 151.44252052498285 0.5 L 151.44252052498285 3.5 L 158.44252052498285 0 L 151.44252052498285 -3.5 L 151.44252052498285 -0.5 L 122.97126026249143 -0.5 Z"/><text text-anchor="middle" pointer-events="none" font-size="8px" fill="#000000" x="91.97126026249143" y="3" font-family="sans-serif">故障发生的设备</text></g><g class="relationship" transform="translate(45.777688853780774 287.97910230393063) rotate(248.67408287364862)"><path class="outline" fill="#A5ABB6" stroke="none" d="M 32.5 0.5 L 104.45714772534745 0.5 L 104.45714772534745 -0.5 L 32.5 -0.5 Z M 166.45714772534745 0.5 L 238.4142954506949 0.5 L 238.4142954506949 3.5 L 245.4142954506949 0 L 238.4142954506949 -3.5 L 238.4142954506949 -0.5 L 166.45714772534745 -0.5 Z"/><text text-anchor="middle" pointer-events="none" font-size="8px" fill="#000000" x="135.45714772534745" y="3" transform="rotate(180 135.45714772534745 0)" font-family="sans-serif">故障发生的设备</text></g><g class="relationship" transform="translate(212.1626316750655 -6.976105119177703) rotate(530.7619186146148)"><path class="outline" fill="#A5ABB6" stroke="none" d="M 32.5 0.5 L 103.35295539442714 0.5 L 103.35295539442714 -0.5 L 32.5 -0.5 Z M 165.35295539442714 0.5 L 236.20591078885428 0.5 L 236.20591078885428 3.5 L 243.20591078885428 0 L 236.20591078885428 -3.5 L 236.20591078885428 -0.5 L 165.35295539442714 -0.5 Z"/><text text-anchor="middle" pointer-events="none" font-size="8px" fill="#000000" x="134.35295539442714" y="3" transform="rotate(180 134.35295539442714 0)" font-family="sans-serif">故障发生的设备</text></g><g class="relationship" transform="translate(212.1626316750655 -6.976105119177703) rotate(184.53397559351674)"><path class="outline" fill="#A5ABB6" stroke="none" d="M 32.5 0.5 L 176.55078728689537 0.5 L 176.55078728689537 -0.5 L 32.5 -0.5 Z M 230.55078728689537 0.5 L 374.60157457379074 0.5 L 374.60157457379074 3.5 L 381.60157457379074 0 L 374.60157457379074 -3.5 L 374.60157457379074 -0.5 L 230.55078728689537 -0.5 Z"/><text text-anchor="middle" pointer-events="none" font-size="8px" fill="#000000" x="203.55078728689537" y="3" transform="rotate(180 203.55078728689537 0)" font-family="sans-serif">故障失效形式</text></g><g class="relationship" transform="translate(212.1626316750655 -6.976105119177703) rotate(448.7132731252519)"><path class="outline" fill="#A5ABB6" stroke="none" d="M 32.5 0.5 L 48.62581216032717 0.5 L 48.62581216032717 -0.5 L 32.5 -0.5 Z M 110.62581216032717 0.5 L 126.75162432065434 0.5 L 126.75162432065434 3.5 L 133.75162432065434 0 L 126.75162432065434 -3.5 L 126.75162432065434 -0.5 L 110.62581216032717 -0.5 Z"/><text text-anchor="middle" pointer-events="none" font-size="8px" fill="#000000" x="79.62581216032717" y="3" font-family="sans-serif">故障发生的部位</text></g><g class="relationship" transform="translate(212.1626316750655 -6.976105119177703) rotate(309.6964360602823)"><path class="outline" fill="#A5ABB6" stroke="none" d="M 32.5 0.5 L 81.70340608521245 0.5 L 81.70340608521245 -0.5 L 32.5 -0.5 Z M 135.70340608521246 0.5 L 184.9068121704249 0.5 L 184.9068121704249 3.5 L 191.9068121704249 0 L 184.9068121704249 -3.5 L 184.9068121704249 -0.5 L 135.70340608521246 -0.5 Z"/><text text-anchor="middle" pointer-events="none" font-size="8px" fill="#000000" x="108.70340608521245" y="3" font-family="sans-serif">故障失效原因</text></g><g class="relationship" transform="translate(45.777688853780774 287.97910230393063) rotate(233.85190001629303)"><path class="outline" fill="#A5ABB6" stroke="none" d="M 32.5 0.5 L 175.78820319105395 0.5 L 175.78820319105395 -0.5 L 32.5 -0.5 Z M 229.78820319105395 0.5 L 373.0764063821079 0.5 L 373.0764063821079 3.5 L 380.0764063821079 0 L 373.0764063821079 -3.5 L 373.0764063821079 -0.5 L 229.78820319105395 -0.5 Z"/><text text-anchor="middle" pointer-events="none" font-size="8px" fill="#000000" x="202.78820319105395" y="3" transform="rotate(180 202.78820319105395 0)" font-family="sans-serif">故障失效形式</text></g><g class="relationship" transform="translate(45.777688853780774 287.97910230393063) rotate(324.54839876149435)"><path class="outline" fill="#A5ABB6" stroke="none" d="M 32.5 0.5 L 66.27090549450791 0.5 L 66.27090549450791 -0.5 L 32.5 -0.5 Z M 128.27090549450793 0.5 L 162.04181098901583 0.5 L 162.04181098901583 3.5 L 169.04181098901583 0 L 162.04181098901583 -3.5 L 162.04181098901583 -0.5 L 128.27090549450793 -0.5 Z"/><text text-anchor="middle" pointer-events="none" font-size="8px" fill="#000000" x="97.27090549450791" y="3" font-family="sans-serif">故障发生的部位</text></g><g class="relationship" transform="translate(375.0472442856941 264.3742456476282) rotate(211.55700244224352)"><path class="outline" fill="#A5ABB6" stroke="none" d="M 32.5 0.5 L 55.036689476986155 0.5 L 55.036689476986155 -0.5 L 32.5 -0.5 Z M 117.03668947698615 0.5 L 139.5733789539723 0.5 L 139.5733789539723 3.5 L 146.5733789539723 0 L 139.5733789539723 -3.5 L 139.5733789539723 -0.5 L 117.03668947698615 -0.5 Z"/><text text-anchor="middle" pointer-events="none" font-size="8px" fill="#000000" x="86.03668947698615" y="3" transform="rotate(180 86.03668947698615 0)" font-family="sans-serif">故障发生的部位</text></g><g class="relationship" transform="translate(375.0472442856941 264.3742456476282) rotate(517.0411149000297)"><path class="outline" fill="#A5ABB6" stroke="none" d="M 32.5 0.5 L 55.63979916002876 0.5 L 55.63979916002876 -0.5 L 32.5 -0.5 Z M 109.63979916002876 0.5 L 132.77959832005752 0.5 L 132.77959832005752 3.5 L 139.77959832005752 0 L 132.77959832005752 -3.5 L 132.77959832005752 -0.5 L 109.63979916002876 -0.5 Z"/><text text-anchor="middle" pointer-events="none" font-size="8px" fill="#000000" x="82.63979916002876" y="3" transform="rotate(180 82.63979916002876 0)" font-family="sans-serif">故障失效原因</text></g><g class="relationship" transform="translate(375.0472442856941 264.3742456476282) rotate(427.8813521276291)"><path class="outline" fill="#A5ABB6" stroke="none" d="M 32.5 0.5 L 52.55333080802575 0.5 L 52.55333080802575 -0.5 L 32.5 -0.5 Z M 106.55333080802575 0.5 L 126.6066616160515 0.5 L 126.6066616160515 3.5 L 133.6066616160515 0 L 126.6066616160515 -3.5 L 126.6066616160515 -0.5 L 106.55333080802575 -0.5 Z"/><text text-anchor="middle" pointer-events="none" font-size="8px" fill="#000000" x="79.55333080802575" y="3" font-family="sans-serif">故障失效形式</text></g><g class="relationship" transform="translate(375.0472442856941 264.3742456476282) rotate(289.95690652076365)"><path class="outline" fill="#A5ABB6" stroke="none" d="M 32.5 0.5 L 46.34798324836997 0.5 L 46.34798324836997 -0.5 L 32.5 -0.5 Z M 100.34798324836997 0.5 L 114.19596649673994 0.5 L 114.19596649673994 3.5 L 121.19596649673994 0 L 114.19596649673994 -3.5 L 114.19596649673994 -0.5 L 100.34798324836997 -0.5 Z"/><text text-anchor="middle" pointer-events="none" font-size="8px" fill="#000000" x="73.34798324836997" y="3" font-family="sans-serif">故障失效原因</text></g><g class="relationship" transform="translate(45.777688853780774 287.97910230393063) rotate(483.192365961278)"><path class="outline" fill="#A5ABB6" stroke="none" d="M 32.5 0.5 L 58.50862506157205 0.5 L 58.50862506157205 -0.5 L 32.5 -0.5 Z M 112.50862506157205 0.5 L 138.5172501231441 0.5 L 138.5172501231441 3.5 L 145.5172501231441 0 L 138.5172501231441 -3.5 L 138.5172501231441 -0.5 L 112.50862506157205 -0.5 Z"/><text text-anchor="middle" pointer-events="none" font-size="8px" fill="#000000" x="85.50862506157205" y="3" transform="rotate(180 85.50862506157205 0)" font-family="sans-serif">故障失效原因</text></g></g><g class="layer nodes"><g class="node" transform="translate(-52.56459017613486,36.08093371333143)"><circle class="outline" cx="0" cy="0" r="25" fill="#569480" stroke="#447666" stroke-width="2px"/><text text-anchor="middle" pointer-events="none" font-family="sans-serif" dy="1.5625" font-size="25" fill="#FFFFFF"/><text text-anchor="middle" pointer-events="none" x="0" y="5" font-size="10px" fill="#FFFFFF" font-family="sans-serif"> 交流鼠笼…</text></g><g class="node" transform="translate(551.4765770988371,314.61216817302704)"><circle class="outline" cx="0" cy="0" r="25" fill="#569480" stroke="#447666" stroke-width="2px"/><text text-anchor="middle" pointer-events="none" font-family="sans-serif" dy="1.5625" font-size="25" fill="#FFFFFF"/><text text-anchor="middle" pointer-events="none" x="0" y="5" font-size="10px" fill="#FFFFFF" font-family="sans-serif"> 检测元件</text></g><g class="node" transform="translate(375.0472442856941,264.3742456476282)"><circle class="outline" cx="0" cy="0" r="32.5" fill="#604A0E" stroke="#423204" stroke-width="2px"/><text text-anchor="middle" pointer-events="none" font-family="sans-serif" dy="2.03125" font-size="32.5" fill="#FFFFFF"/><text text-anchor="middle" pointer-events="none" x="0" y="5" font-size="10px" fill="#FFFFFF" font-family="sans-serif"> 导板故障</text></g><g class="node" transform="translate(45.777688853780774,287.97910230393063)"><circle class="outline" cx="0" cy="0" r="32.5" fill="#604A0E" stroke="#423204" stroke-width="2px"/><text text-anchor="middle" pointer-events="none" font-family="sans-serif" dy="2.03125" font-size="32.5" fill="#FFFFFF"/><text text-anchor="middle" pointer-events="none" x="0" y="5" font-size="10px" fill="#FFFFFF" font-family="sans-serif"> 马达故障</text></g><g class="node" transform="translate(212.1626316750655,-6.976105119177703)"><circle class="outline" cx="0" cy="0" r="32.5" fill="#604A0E" stroke="#423204" stroke-width="2px"/><text text-anchor="middle" pointer-events="none" font-family="sans-serif" dy="2.03125" font-size="32.5" fill="#FFFFFF"/><text text-anchor="middle" pointer-events="none" x="0" y="5" font-size="10px" fill="#FFFFFF" font-family="sans-serif"> 油库跳泵</text></g><g class="node" transform="translate(-193.16653747861005,-39.11805713017057)"><circle class="outline" cx="0" cy="0" r="25" fill="#F79767" stroke="#f36924" stroke-width="2px"/><text text-anchor="middle" pointer-events="none" font-family="sans-serif" dy="1.5625" font-size="25" fill="#FFFFFF"/><text text-anchor="middle" pointer-events="none" x="0" y="5" font-size="10px" fill="#FFFFFF" font-family="sans-serif"> 短路/接地</text></g><g class="node" transform="translate(216.06435173401283,166.73170568576973)"><circle class="outline" cx="0" cy="0" r="40" fill="#C990C0" stroke="#b261a5" stroke-width="2px"/><text text-anchor="middle" pointer-events="none" font-family="sans-serif" dy="2.5" font-size="40" fill="#FFFFFF"/><text text-anchor="middle" pointer-events="none" x="0" y="5" font-size="10px" fill="#FFFFFF" font-family="sans-serif"> 电缆/接线</text></g><g class="node" transform="translate(350.7053415732165,-173.87272791308794)"><circle class="outline" cx="0" cy="0" r="25" fill="#57C7E3" stroke="#23b3d7" stroke-width="2px"/><text text-anchor="middle" pointer-events="none" font-family="sans-serif" dy="1.5625" font-size="25" fill="#2A2C34"/><text text-anchor="middle" pointer-events="none" x="0" y="5" font-size="10px" fill="#2A2C34" font-family="sans-serif"> 紧固/接…</text></g><g class="node" transform="translate(223.3206616281079,328.64990307382783)"><circle class="outline" cx="0" cy="0" r="25" fill="#57C7E3" stroke="#23b3d7" stroke-width="2px"/><text text-anchor="middle" pointer-events="none" font-family="sans-serif" dy="1.5625" font-size="25" fill="#2A2C34"/><text text-anchor="middle" pointer-events="none" x="0" y="5" font-size="10px" fill="#2A2C34" font-family="sans-serif"> 部件劣化</text></g><g class="node" transform="translate(434.7667440378488,411.3084297517401)"><circle class="outline" cx="0" cy="0" r="25" fill="#F79767" stroke="#f36924" stroke-width="2px"/><text text-anchor="middle" pointer-events="none" font-family="sans-serif" dy="1.5625" font-size="25" fill="#FFFFFF"/><text text-anchor="middle" pointer-events="none" x="0" y="5" font-size="10px" fill="#FFFFFF" font-family="sans-serif"> 主机动作…</text></g><g class="node" transform="translate(424.94586944455494,126.9574059693289)"><circle class="outline" cx="0" cy="0" r="25" fill="#57C7E3" stroke="#23b3d7" stroke-width="2px"/><text text-anchor="middle" pointer-events="none" font-family="sans-serif" dy="1.5625" font-size="25" fill="#2A2C34"/><text text-anchor="middle" pointer-events="none" x="0" y="5" font-size="10px" fill="#2A2C34" font-family="sans-serif"> 损坏</text></g><g class="node" transform="translate(-47.572274533297396,430.6742911688326)"><circle class="outline" cx="0" cy="0" r="25" fill="#57C7E3" stroke="#23b3d7" stroke-width="2px"/><text text-anchor="middle" pointer-events="none" font-family="sans-serif" dy="1.5625" font-size="25" fill="#2A2C34"/><text text-anchor="middle" pointer-events="none" x="0" y="5" font-size="10px" fill="#2A2C34" font-family="sans-serif"> 环境因素</text></g></g></svg>